<svg width="28" height="28" viewBox="0 0 28 28" fill="none" xmlns="http://www.w3.org/2000/svg">
<path d="M25.2471 13.5292L14.2681 2.55821C14.1891 2.47901 14.0952 2.41617 13.9918 2.37329C13.8885 2.33042 13.7777 2.30835 13.6658 2.30835C13.5539 2.30835 13.443 2.33042 13.3397 2.37329C13.2363 2.41617 13.1424 2.47901 13.0634 2.55821L2.08442 13.5292C1.76456 13.849 1.58331 14.2835 1.58331 14.7366C1.58331 15.6775 2.34829 16.4425 3.2892 16.4425H4.446V24.2709C4.446 24.7427 4.82716 25.1238 5.29894 25.1238H11.9599V19.1533H14.9452V25.1238H22.0326C22.5044 25.1238 22.8855 24.7427 22.8855 24.2709V16.4425H24.0423C24.4954 16.4425 24.9299 16.2639 25.2498 15.9414C25.9135 15.275 25.9135 14.1955 25.2471 13.5292Z" fill="white"/>
</svg>
