<svg width="29" height="29" viewBox="0 0 29 29" fill="none" xmlns="http://www.w3.org/2000/svg">
<path d="M26.1497 14.3822L15.1708 3.41124C15.0917 3.33203 14.9978 3.2692 14.8945 3.22632C14.7911 3.18345 14.6803 3.16138 14.5684 3.16138C14.4565 3.16138 14.3457 3.18345 14.2423 3.22632C14.139 3.2692 14.0451 3.33203 13.966 3.41124L2.98706 14.3822C2.66721 14.702 2.48596 15.1365 2.48596 15.5896C2.48596 16.5305 3.25094 17.2955 4.19184 17.2955H5.34865V25.1239C5.34865 25.5957 5.7298 25.9769 6.20159 25.9769H12.8625V20.0063H15.8478V25.9769H22.9352C23.407 25.9769 23.7882 25.5957 23.7882 25.1239V17.2955H24.945C25.3981 17.2955 25.8326 17.1169 26.1524 16.7944C26.8161 16.1281 26.8161 15.0486 26.1497 14.3822Z" fill="#111010"/>
</svg>
