<svg width="37" height="36" viewBox="0 0 37 36" fill="none" xmlns="http://www.w3.org/2000/svg">
<path d="M20.6337 3.23828C12.6327 3.23828 6.12391 9.64988 5.92951 17.6311V18.0001H1.65991L8.12911 25.0093L14.4183 18.0001H9.60871V17.6311C9.80131 11.6857 14.6631 6.93008 20.6337 6.93008C26.7285 6.93008 31.6695 11.8873 31.6695 18.0001C31.6695 24.1129 26.7285 29.0701 20.6337 29.0701C18.2838 29.0715 15.9954 28.3188 14.1051 26.9227L11.5743 29.6299C14.1573 31.66 17.3484 32.762 20.6337 32.7583C28.7607 32.7583 35.3469 26.1523 35.3469 18.0001C35.3469 9.84788 28.7607 3.23828 20.6337 3.23828ZM18.8337 9.00008V18.0001C18.8358 18.477 19.0252 18.9341 19.3611 19.2727L25.1211 25.0327C25.6305 24.7033 26.1111 24.3325 26.5377 23.9023L22.4337 19.8001V9.00008H18.8337Z" fill="black"/>
</svg>
