<svg width="41" height="41" viewBox="0 0 41 41" fill="none" xmlns="http://www.w3.org/2000/svg">
<path d="M5.4849 4.13871C5.24794 3.91791 4.93453 3.7977 4.61069 3.80342C4.28686 3.80913 3.97788 3.94032 3.74886 4.16934C3.51984 4.39836 3.38865 4.70734 3.38294 5.03117C3.37722 5.35501 3.49743 5.66842 3.71823 5.90538L6.5849 8.77204H6.26823C5.49468 8.77204 4.75282 9.07933 4.20583 9.62631C3.65885 10.1733 3.35156 10.9152 3.35156 11.6887V25.8554C3.35156 27.4654 4.65823 28.772 6.26823 28.772H26.5849L29.0749 31.2637C28.9728 31.2693 28.8705 31.2721 28.7682 31.272H7.35323C7.79207 32.0325 8.42347 32.6639 9.18389 33.1028C9.94431 33.5417 10.8069 33.7725 11.6849 33.772H28.7682C29.6182 33.772 30.4349 33.6387 31.2016 33.3904L34.5516 36.7404C34.6669 36.8597 34.8049 36.9549 34.9574 37.0203C35.11 37.0857 35.274 37.1202 35.44 37.1215C35.606 37.1229 35.7705 37.0912 35.9241 37.0283C36.0777 36.9653 36.2172 36.8724 36.3346 36.755C36.4519 36.6376 36.5446 36.498 36.6074 36.3443C36.6702 36.1907 36.7017 36.0261 36.7002 35.8601C36.6987 35.6941 36.6641 35.5301 36.5985 35.3777C36.533 35.2252 36.4377 35.0873 36.3182 34.972L5.4849 4.13871ZM19.8982 22.087C19.1787 22.6789 18.2647 22.9817 17.3341 22.9365C16.4036 22.8913 15.5232 22.5013 14.8644 21.8425C14.2056 21.1838 13.8157 20.3034 13.7705 19.3728C13.7253 18.4423 14.0281 17.5282 14.6199 16.8087L19.8982 22.087ZM8.66823 10.8554L10.8216 13.0087C10.7034 13.9116 10.2608 14.7406 9.57624 15.3411C8.89173 15.9416 8.01213 16.2725 7.10156 16.272H5.4349V13.772H7.10156C7.43308 13.772 7.75103 13.6403 7.98545 13.4059C8.21987 13.1715 8.35156 12.8536 8.35156 12.522V10.8554H8.66823ZM7.10156 23.772H5.4349V21.272H7.10156C8.09612 21.272 9.04995 21.6671 9.75321 22.3704C10.4565 23.0737 10.8516 24.0275 10.8516 25.022V26.6887H8.35156V25.022C8.35156 24.6905 8.21987 24.3726 7.98545 24.1382C7.75103 23.9037 7.43308 23.772 7.10156 23.772ZM29.6016 23.772H28.6516L31.5649 26.6854C31.6432 26.422 31.6849 26.1437 31.6849 25.8554V11.6887C31.6849 10.9152 31.3776 10.1733 30.8306 9.62631C30.2836 9.07933 29.5418 8.77204 28.7682 8.77204H13.6516L26.4566 21.5754C26.9236 21.3747 27.4266 21.2715 27.9349 21.272H29.6016V23.772ZM26.6849 10.8554V12.522C26.6849 13.212 27.2449 13.772 27.9349 13.772H29.6016V16.272H27.9349C26.9403 16.272 25.9865 15.877 25.2832 15.1737C24.58 14.4704 24.1849 13.5166 24.1849 12.522V10.8554H26.6849ZM33.4549 28.5737L35.2632 30.382C36.1599 29.0987 36.6849 27.5387 36.6849 25.8554V17.1054C36.6852 16.2274 36.4543 15.3649 36.0154 14.6045C35.5766 13.8441 34.9452 13.2127 34.1849 12.7737V25.8554C34.1849 26.8454 33.9182 27.7754 33.4549 28.5737Z" fill="black"/>
</svg>
