<svg width="38" height="36" viewBox="0 0 38 36" fill="none" xmlns="http://www.w3.org/2000/svg">
<g clip-path="url(#clip0_825_407)">
<path d="M33.5551 9.44223C32.5617 9.88242 31.4946 10.1798 30.3727 10.3143C31.5303 9.62163 32.3963 8.53149 32.8092 7.24727C31.7216 7.89325 30.5313 8.34796 29.2901 8.59161C28.4554 7.70038 27.3498 7.10965 26.145 6.91115C24.9401 6.71265 23.7035 6.91748 22.627 7.49383C21.5505 8.07019 20.6944 8.98583 20.1916 10.0986C19.6888 11.2113 19.5675 12.459 19.8464 13.6478C17.6427 13.5371 15.487 12.9643 13.519 11.9666C11.551 10.9689 9.8148 9.56853 8.42306 7.85639C7.94719 8.67727 7.67356 9.62901 7.67356 10.6426C7.67303 11.5551 7.89774 12.4536 8.32774 13.2584C8.75775 14.0632 9.37976 14.7495 10.1386 15.2562C9.25855 15.2282 8.39793 14.9904 7.62836 14.5626V14.634C7.62827 15.9138 8.07096 17.1542 8.88131 18.1448C9.69166 19.1353 10.8198 19.815 12.0742 20.0685C11.2578 20.2894 10.4019 20.322 9.57111 20.1637C9.92503 21.2648 10.6145 22.2278 11.5428 22.9177C12.4712 23.6076 13.5921 23.9899 14.7486 24.0111C12.7854 25.5522 10.3609 26.3882 7.8651 26.3845C7.42299 26.3846 6.98126 26.3588 6.54218 26.3072C9.07558 27.9361 12.0246 28.8005 15.0365 28.7972C25.2321 28.7972 30.8057 20.3528 30.8057 13.0291C30.8057 12.7912 30.7998 12.5509 30.7891 12.3129C31.8732 11.5289 32.8091 10.558 33.5527 9.4458L33.5551 9.44223Z" fill="white"/>
</g>
<defs>
<clipPath id="clip0_825_407">
<rect width="28.5524" height="28.5524" fill="white" transform="translate(5.42645 3.56934)"/>
</clipPath>
</defs>
</svg>
