<svg width="74" height="193" viewBox="0 0 74 193" fill="none" xmlns="http://www.w3.org/2000/svg">
<g clip-path="url(#clip0_827_1246)">
<path d="M53.9734 172.607L54.5166 181.784C54.5166 181.784 63.9165 183.554 64.1803 185.24L46.5342 187.692L45.1064 173.429L53.9734 172.607Z" fill="#E8505B"/>
<path d="M48.9541 181.536C48.6178 181.665 48.4212 182.074 48.5299 182.41C48.6437 182.751 49.0576 182.958 49.3938 182.834C49.7301 182.715 49.9888 182.229 49.8387 181.903C49.6887 181.577 49.1869 181.36 48.892 181.556" fill="#EBEBEB"/>
<path d="M46.5347 187.687L46.3898 186.264L63.141 184.268C63.141 184.268 64.1704 184.718 64.217 185.271L46.5347 187.687Z" fill="#EBEBEB"/>
<path d="M54.7948 181.665C54.8 181.753 54.3706 181.831 53.9723 182.152C53.5636 182.462 53.3773 182.855 53.2946 182.829C53.2118 182.819 53.2946 182.291 53.786 181.914C54.2723 181.531 54.8052 181.582 54.7948 181.665Z" fill="#263238"/>
<path d="M56.7304 182.255C56.7563 182.338 56.3993 182.519 56.1355 182.917C55.8665 183.305 55.8303 183.709 55.7423 183.714C55.6647 183.735 55.5561 183.233 55.8872 182.746C56.2131 182.26 56.7201 182.172 56.7304 182.255Z" fill="#263238"/>
<path d="M57.9997 184.386C57.9221 184.412 57.7617 183.988 57.9376 183.496C58.1135 183 58.5015 182.772 58.5481 182.839C58.605 182.907 58.367 183.186 58.2273 183.595C58.0773 183.998 58.0876 184.366 57.9997 184.386Z" fill="#263238"/>
<path d="M54.438 179.586C54.407 179.668 53.9983 179.585 53.512 179.668C53.0257 179.741 52.6584 179.937 52.6067 179.87C52.5498 179.813 52.8912 179.456 53.4654 179.368C54.0397 179.275 54.4742 179.513 54.438 179.586Z" fill="#263238"/>
<path d="M54.2956 177.739C54.3008 177.775 53.9645 177.863 53.4058 177.817C53.1264 177.796 52.8005 177.739 52.4487 177.62C52.2728 177.563 52.0918 177.485 51.9107 177.398C51.8228 177.351 51.7193 177.31 51.621 177.216C51.5175 177.134 51.4399 176.911 51.5382 176.761C51.6158 176.616 51.771 176.544 51.9004 176.528C52.0297 176.513 52.1383 176.528 52.2366 176.544C52.4384 176.575 52.6298 176.622 52.8057 176.684C53.1575 176.808 53.4523 176.973 53.6748 177.144C54.1249 177.485 54.2956 177.796 54.2646 177.817C54.2283 177.848 54.0007 177.594 53.5506 177.32C53.3282 177.185 53.0437 177.046 52.7126 176.947C52.547 176.901 52.3711 176.859 52.1849 176.839C51.9935 176.808 51.8331 176.823 51.7917 176.911C51.7762 176.947 51.7762 176.958 51.8228 177.01C51.8693 177.056 51.9469 177.097 52.0349 177.144C52.2004 177.232 52.366 177.304 52.5315 177.366C52.8574 177.491 53.1626 177.568 53.4213 177.615C53.9593 177.698 54.2956 177.687 54.2956 177.739Z" fill="#263238"/>
<path d="M54.1968 177.874C54.1657 177.889 53.964 177.594 53.8812 177.035C53.8398 176.756 53.8346 176.42 53.9122 176.053C53.9484 175.871 54.0054 175.68 54.0881 175.489C54.1761 175.302 54.2795 175.054 54.6106 174.987C54.7865 174.961 54.9469 175.085 55.0038 175.199C55.0762 175.313 55.0969 175.416 55.128 175.515C55.1797 175.716 55.1952 175.923 55.1849 176.115C55.1642 176.497 55.04 176.829 54.89 177.072C54.5848 177.563 54.233 177.703 54.2226 177.672C54.1916 177.63 54.4761 177.434 54.6986 176.968C54.8072 176.735 54.8952 176.441 54.9003 176.104C54.9003 175.939 54.8848 175.763 54.8331 175.592C54.7865 175.406 54.7037 175.261 54.6313 175.287C54.5434 175.292 54.4089 175.452 54.3468 175.608C54.2692 175.773 54.2123 175.944 54.1709 176.109C54.0881 176.441 54.0726 176.751 54.083 177.015C54.1192 177.537 54.2433 177.853 54.1968 177.874Z" fill="#263238"/>
<path d="M14.0555 171.422L12.0069 182.772L7.79579 191.282C7.49057 191.898 7.76993 192.638 8.40624 192.896C8.75803 193.041 9.16154 193.01 9.48229 192.803C11.5464 191.5 19.1098 186.673 19.2132 185.835C19.3322 184.862 22.1672 174.004 22.1672 174.004L14.0555 171.422Z" fill="#E8505B"/>
<path d="M8.40625 192.902L19.3685 185.08L19.2702 185.561C19.1874 185.975 18.9598 186.347 18.6287 186.606C17.7389 187.304 15.2402 189.172 9.51851 192.819C9.18224 193.026 8.76838 193.062 8.40625 192.902Z" fill="#EBEBEB"/>
<path d="M17.7911 181.769C17.4703 181.908 17.2893 182.317 17.4134 182.643C17.5376 182.969 17.9514 183.16 18.2774 183.026C18.6033 182.891 18.8361 182.41 18.6757 182.095C18.5153 181.784 18.0187 181.588 17.7342 181.795" fill="#EBEBEB"/>
<path d="M11.9959 188.489C11.9235 188.509 11.7941 187.863 11.1837 187.408C10.5888 186.932 9.93176 186.968 9.93176 186.895C9.92659 186.864 10.087 186.807 10.3611 186.823C10.6302 186.838 11.0078 186.952 11.3389 187.211C11.67 187.47 11.8769 187.801 11.9545 188.059C12.0425 188.318 12.0269 188.489 11.9959 188.489Z" fill="#263238"/>
<path d="M10.8849 189.839C10.8228 189.875 10.5331 189.436 9.98477 189.151C9.44158 188.851 8.9139 188.856 8.90873 188.784C8.88803 188.722 9.48296 188.592 10.1038 188.929C10.7246 189.255 10.947 189.818 10.8849 189.839Z" fill="#263238"/>
<path d="M13.8895 186.854C13.8274 186.896 13.3877 186.218 12.5703 185.695C11.7633 185.162 10.9614 185.038 10.9718 184.961C10.9666 184.899 11.8357 184.909 12.7048 185.483C13.5843 186.047 13.9516 186.833 13.8895 186.854Z" fill="#263238"/>
<path d="M14.8003 183.455C14.7537 183.517 14.1847 183.129 13.3776 182.933C12.5758 182.726 11.8877 182.803 11.8774 182.726C11.8567 182.664 12.5758 182.467 13.4397 182.684C14.3088 182.902 14.8469 183.414 14.8003 183.455Z" fill="#263238"/>
<path d="M15.4883 180.139C15.4418 180.196 14.8882 179.694 14.0243 179.555C13.1603 179.399 12.4775 179.694 12.4464 179.627C12.4309 179.601 12.5861 179.482 12.8758 179.384C13.1655 179.286 13.6001 179.229 14.0657 179.306C14.5313 179.384 14.9193 179.58 15.1624 179.772C15.4056 179.958 15.509 180.118 15.4883 180.139Z" fill="#263238"/>
<path d="M14.1693 178.929C14.1538 178.923 14.159 178.768 14.2417 178.499C14.3245 178.23 14.4849 177.842 14.8108 177.449C14.9763 177.263 15.1574 177.02 15.504 176.937C15.6747 176.896 15.9024 176.973 16.0058 177.149C16.1093 177.32 16.1145 177.516 16.0782 177.697C15.9179 178.411 15.1626 178.98 14.3348 178.918C13.5071 178.841 12.8656 178.23 12.6742 177.542C12.638 177.366 12.6277 177.159 12.757 176.989C12.8812 176.813 13.1295 176.782 13.2847 176.844C13.6106 176.963 13.7813 177.201 13.952 177.382C14.2779 177.775 14.4487 178.153 14.5418 178.416C14.6349 178.68 14.6504 178.841 14.6349 178.841C14.5883 178.861 14.4642 178.225 13.8123 177.496C13.6468 177.325 13.4554 177.113 13.2226 177.04C13.1088 177.004 12.995 177.03 12.9329 177.118C12.8708 177.201 12.8656 177.346 12.9018 177.485C13.0674 178.049 13.6571 178.608 14.3555 178.66C15.0539 178.717 15.7161 178.22 15.8506 177.646C15.8817 177.506 15.8713 177.361 15.8144 177.263C15.7575 177.165 15.6489 177.123 15.5402 177.144C15.3023 177.185 15.1057 177.397 14.9453 177.568C14.3038 178.303 14.221 178.955 14.1693 178.929Z" fill="#263238"/>
<path d="M14.7699 94.7591C14.6509 94.7487 10.8848 180.703 10.8848 180.703H22.3746L27.9618 134.138L30.8537 98.5563L36.8185 131.867L44.0352 179.28L55.5975 176.797L47.7703 92.1207L31.3762 83.0364L14.7699 94.7591Z" fill="#263238"/>
<path d="M24.5346 33.8334L35.3985 32.9643C35.4658 31.6968 35.3778 26.7874 35.3778 26.7874C35.3778 26.7874 39.8993 26.0838 39.951 21.5675C40.0079 17.046 39.2216 6.6736 39.2216 6.6736C33.9914 4.42322 27.9541 5.18369 23.4379 8.65497L22.7705 9.1723L24.5346 33.8334Z" fill="#FFBE9D"/>
<path d="M35.3807 26.7255C35.3807 26.7255 32.525 26.9583 29.4883 25.0493C29.4883 25.0493 30.8799 28.3033 35.391 27.8946L35.3807 26.7255Z" fill="#EB996E"/>
<path d="M23.3264 13.8545C23.2488 13.8235 20.2224 12.9337 20.3207 16.0273C20.419 19.1158 23.5023 18.3812 23.5023 18.2932C23.5023 18.2001 23.3264 13.8545 23.3264 13.8545Z" fill="#FFBE9D"/>
<path d="M22.5207 17.1494C22.5052 17.1391 22.469 17.1908 22.3759 17.2322C22.2879 17.2736 22.1379 17.3098 21.9723 17.2529C21.6413 17.1442 21.3515 16.6321 21.3205 16.0785C21.305 15.7992 21.3515 15.5302 21.4447 15.3025C21.5326 15.0749 21.6723 14.9094 21.8378 14.8783C21.9982 14.837 22.1172 14.9301 22.1586 15.018C22.2051 15.1008 22.1844 15.1629 22.2 15.168C22.2103 15.1732 22.2672 15.1163 22.2362 14.987C22.2207 14.9249 22.1844 14.8525 22.1068 14.7956C22.0293 14.7387 21.9206 14.7128 21.8068 14.7283C21.5688 14.7542 21.3619 14.9766 21.2584 15.2249C21.1446 15.4733 21.0825 15.7785 21.0981 16.0941C21.1394 16.7149 21.4757 17.2891 21.9258 17.4029C22.1431 17.4546 22.3241 17.3822 22.4172 17.3046C22.5207 17.227 22.5311 17.1546 22.5207 17.1494Z" fill="#EB996E"/>
<path d="M38.3075 14.0713C38.3178 14.4127 38.0385 14.7024 37.6867 14.7231C37.3297 14.7438 37.0348 14.48 37.0193 14.1437C37.009 13.8023 37.2883 13.5126 37.6401 13.4919C37.9971 13.4712 38.2971 13.7299 38.3075 14.0713Z" fill="#263238"/>
<path d="M38.369 13.0312C38.2914 13.114 37.8 12.7519 37.1068 12.757C36.4135 12.7467 35.9014 13.1036 35.829 13.0209C35.7927 12.9847 35.8755 12.8295 36.0928 12.6691C36.3101 12.5087 36.6825 12.3535 37.1171 12.3535C37.5517 12.3535 37.9138 12.5139 38.1207 12.6794C38.338 12.8398 38.4053 12.995 38.369 13.0312Z" fill="#263238"/>
<path d="M31.5585 14.0715C31.5689 14.413 31.2895 14.7027 30.9377 14.7234C30.5808 14.7441 30.2859 14.4802 30.2704 14.144C30.26 13.8025 30.5394 13.5128 30.8912 13.4921C31.2481 13.4714 31.543 13.7301 31.5585 14.0715Z" fill="#263238"/>
<path d="M31.5372 13.1611C31.4596 13.2439 30.9682 12.8817 30.275 12.8869C29.5817 12.8766 29.0696 13.2335 28.9971 13.1508C28.9609 13.1145 29.0385 12.9593 29.2662 12.799C29.4834 12.6386 29.8559 12.4834 30.2905 12.4834C30.725 12.4834 31.0872 12.6438 31.2941 12.8093C31.5062 12.9697 31.5786 13.1249 31.5372 13.1611Z" fill="#263238"/>
<path d="M34.0619 18.3138C34.0567 18.2724 34.4913 18.2 35.1897 18.112C35.3656 18.0913 35.5363 18.0603 35.5621 17.9361C35.6035 17.8068 35.5311 17.6154 35.4432 17.4085C35.2776 16.9791 35.1017 16.529 34.9207 16.0582C34.1912 14.1338 33.6636 12.5559 33.7412 12.5249C33.8188 12.4938 34.4706 14.0303 35.2 15.9548C35.3759 16.4307 35.5415 16.8808 35.7018 17.3153C35.7691 17.5171 35.8829 17.7447 35.795 18.0137C35.7484 18.1482 35.6191 18.2414 35.5052 18.2724C35.3914 18.3086 35.2931 18.3086 35.2052 18.3138C34.4965 18.35 34.0619 18.35 34.0619 18.3138Z" fill="#263238"/>
<path d="M32.0147 18.7943C32.1285 18.7891 32.1285 19.5392 32.7751 20.0773C33.4166 20.6153 34.2237 20.5273 34.2288 20.636C34.2392 20.6825 34.0478 20.7808 33.7115 20.7912C33.3804 20.8015 32.8941 20.6981 32.4958 20.367C32.1026 20.0411 31.9319 19.6013 31.906 19.2909C31.8802 18.9754 31.9681 18.7891 32.0147 18.7943Z" fill="#263238"/>
<path d="M31.7179 10.44C31.6507 10.6314 30.9575 10.5383 30.1401 10.6366C29.3227 10.7193 28.6657 10.9573 28.557 10.7866C28.5105 10.7038 28.6243 10.5279 28.8881 10.3469C29.152 10.1658 29.571 9.98991 30.0625 9.93818C30.5539 9.88645 30.9988 9.96405 31.2937 10.083C31.5989 10.202 31.749 10.352 31.7179 10.44Z" fill="#263238"/>
<path d="M38.1123 11.0246C37.9881 11.1798 37.5122 11.0195 36.9379 11.0091C36.3637 10.9833 35.8774 11.1126 35.7636 10.9522C35.7119 10.8746 35.7895 10.7142 36.0016 10.5642C36.2137 10.4142 36.5603 10.2952 36.9586 10.3056C37.3518 10.3159 37.6984 10.4608 37.895 10.6211C38.0967 10.7815 38.164 10.947 38.1123 11.0246Z" fill="#263238"/>
<path d="M41.423 3.82311C41.4696 3.26439 41.2626 2.66429 40.8074 2.3332C40.3521 2.00211 39.6434 2.0228 39.2761 2.44701C39.4882 1.69171 38.8726 0.8226 38.0914 0.770867C37.3568 0.724308 36.7257 1.28302 36.0117 1.47443C35.3185 1.66585 34.5684 1.5003 33.901 1.23129C33.2337 0.962279 32.6077 0.589802 31.93 0.341484C30.5177 -0.175845 28.9036 -0.108592 27.5379 0.517376C26.1721 1.14334 25.0702 2.32803 24.5426 3.73516C23.5545 3.42477 22.4319 3.92658 21.8214 4.76465C21.211 5.60272 21.0558 6.69946 21.1747 7.72894C21.2575 8.42217 21.4593 9.0947 21.6921 9.75688C21.6921 9.81378 21.6869 9.87069 21.6869 9.93277C21.7335 12.4159 22.0128 15.3337 23.0733 15.3544C24.9202 15.3802 24.4805 11.9038 24.4805 11.9038C26.7464 11.0295 25.9031 7.63065 26.4722 7.11332C27.0413 6.59599 28.2259 5.40096 32.975 7.82724C34.8167 8.76878 37.2689 8.73774 38.6087 8.43769C38.6501 8.42734 38.6863 8.42217 38.7277 8.41182C38.7381 8.41182 38.7484 8.40665 38.7536 8.40665C38.7691 8.40147 38.7795 8.3963 38.795 8.39113C39.2192 8.28249 39.633 8.11694 40.0107 7.8738C40.4401 7.59961 40.8333 7.23231 41.0143 6.75637C41.1954 6.28042 41.1281 5.69067 40.7557 5.34406C41.0971 4.90433 41.3713 4.38183 41.423 3.82311Z" fill="#263238"/>
<path d="M66.0844 69.6533C66.0844 69.6533 66.131 69.6947 66.1982 69.7827C66.3948 70.0413 66.7363 70.7035 66.3793 71.8623C65.9034 73.4091 64.8894 75.6181 64.8894 75.6181C64.8894 75.6181 65.2464 77.1649 64.8894 77.5271C64.5324 77.884 58.6349 77.5271 58.6349 77.5271C58.6349 77.5271 57.6209 76.9632 58.3969 76.4717H62.5355" fill="#FFBE9D"/>
<path d="M13.1102 35.9805C13.1102 35.9805 8.01448 37.5997 5.63476 47.6566C3.89136 55.044 -1.04913 69.7414 0.202806 72.0849C1.75479 74.9923 19.7734 79.6379 19.7734 79.6379L21.3047 72.7522L12.2773 66.6426L17.1143 50.3053C17.1143 50.3053 17.6627 36.7409 13.1102 35.9805Z" fill="#E8505B"/>
<path d="M14.5367 54.7492C14.5367 55.5148 16.8285 70.8536 16.8285 70.8536L12.2656 95.7734L29.9376 96.7098L31.9034 85.9597L34.3452 96.7098L50.2428 92.8401L46.1662 75.8355L47.713 53.9732L46.0058 35.8098L39.4771 33.5801L36.1042 29.6328L30.6463 33.0317L23.9159 29.0017L21.7845 31.9091L13.1089 35.9805C12.2449 37.5635 14.5367 54.7492 14.5367 54.7492Z" fill="#E8505B"/>
<path d="M23.917 29.0068L23.6945 33.8335L32.9858 58.5567L36.7416 34.2629L35.5207 29.6018C35.5258 29.5966 35.5207 29.6018 35.5155 29.6018L30.6422 33.0317L23.917 29.0068Z" fill="white"/>
<path d="M46.0068 35.8149C46.0068 35.8149 50.4559 39.4052 51.9665 43.668C53.4771 47.9308 55.9654 53.5386 55.9654 53.5386H47.6726L46.0068 35.8149Z" fill="#E8505B"/>
<path d="M32.7782 59.4983C32.773 59.5035 32.6954 59.4104 32.5557 59.2293C32.4005 59.0224 32.2039 58.7585 31.9556 58.4326C31.428 57.7083 30.6933 56.7047 29.7984 55.4735C27.9774 52.9334 25.4994 49.4725 22.7575 45.6494C22.3643 45.0959 21.9763 44.5475 21.5935 44.0146L21.5366 43.937L21.5884 43.8594C22.2247 42.9386 22.8403 42.0488 23.4352 41.19L23.4663 41.3659C21.966 40.2433 20.5796 39.2138 19.369 38.3085L19.3018 38.2619L19.3328 38.1895C20.0622 36.2909 20.6623 34.7286 21.0917 33.606C21.2986 33.0835 21.4642 32.6644 21.5935 32.3489C21.7125 32.0643 21.7798 31.9143 21.7901 31.9143C21.8005 31.9195 21.7539 32.0747 21.6556 32.3696C21.5418 32.6903 21.3969 33.1145 21.2107 33.6474C20.802 34.7751 20.2278 36.353 19.5346 38.2619L19.4983 38.1378C20.7192 39.0328 22.1109 40.0519 23.6215 41.1642L23.7197 41.2366L23.6473 41.34C23.0576 42.1936 22.4471 43.0886 21.8108 44.0146V43.8594C22.1936 44.3975 22.5816 44.9407 22.9748 45.4942C25.6908 49.338 28.1481 52.8144 29.9536 55.3648C30.8227 56.6168 31.5314 57.6359 32.0436 58.3757C32.2712 58.7171 32.4574 58.9913 32.6023 59.2034C32.7213 59.3897 32.7834 59.4931 32.7782 59.4983Z" fill="#263238"/>
<path d="M31.9718 85.2769C31.9614 85.2769 31.9562 85.1838 31.9562 85.0079C31.9562 84.801 31.9614 84.5475 31.9666 84.2371C31.9873 83.5283 32.0131 82.5713 32.0442 81.4073C32.127 78.9862 32.2356 75.7063 32.3598 72.0798C32.4736 68.4534 32.5719 65.1787 32.6443 62.7524C32.6753 61.5884 32.7012 60.6313 32.7167 59.9278C32.7271 59.6174 32.7374 59.3639 32.7478 59.1569C32.7581 58.9811 32.7684 58.8879 32.7788 58.8879C32.7891 58.8879 32.7943 58.9811 32.8047 59.1569C32.8098 59.3639 32.815 59.6174 32.8254 59.9278C32.8409 60.5951 32.8409 61.5625 32.8357 62.7576C32.8202 65.1476 32.7529 68.4482 32.6288 72.0902C32.5046 75.7322 32.3598 79.0276 32.2356 81.4125C32.1683 82.5764 32.1114 83.5283 32.0701 84.2371C32.0442 84.5423 32.0287 84.7958 32.008 85.0027C31.9925 85.189 31.9821 85.2769 31.9718 85.2769Z" fill="#263238"/>
<path d="M33.1611 58.7739C33.1508 58.7687 33.1818 58.6756 33.2491 58.4894C33.3318 58.2825 33.4301 58.0186 33.5543 57.703C33.844 56.9891 34.2423 56.0114 34.7286 54.8215C35.7581 52.3694 37.1549 49.0378 38.7017 45.3596C39.0276 44.5991 39.3432 43.849 39.6536 43.1247L39.6743 43.2592C38.919 42.3539 38.1947 41.4899 37.5119 40.6726L37.4394 40.5846L37.517 40.507C38.6914 39.2913 39.7519 38.1946 40.6521 37.2634L40.6314 37.3617C40.2175 36.1563 39.8761 35.1734 39.6277 34.4491C39.5243 34.1284 39.4363 33.8645 39.3691 33.6524C39.3122 33.4713 39.2863 33.3731 39.2967 33.3679C39.307 33.3627 39.3484 33.4558 39.4208 33.6317C39.5036 33.8387 39.6019 34.0973 39.726 34.4077C39.995 35.1216 40.3624 36.0994 40.8073 37.2944L40.8279 37.3461L40.7866 37.3875C39.9019 38.3291 38.8569 39.4413 37.6929 40.6726L37.6981 40.507C38.3862 41.3192 39.1156 42.1832 39.8761 43.0781L39.9278 43.1402L39.8968 43.2127C39.5915 43.9369 39.2708 44.687 38.95 45.4475C37.3774 49.1154 35.9547 52.4366 34.9045 54.8836C34.3872 56.0579 33.963 57.0253 33.6474 57.7289C33.5026 58.0393 33.3888 58.2928 33.2956 58.4997C33.218 58.6911 33.1715 58.7791 33.1611 58.7739Z" fill="#263238"/>
<g opacity="0.3">
<path d="M19.4268 38.2205L22.1686 41.2779L20.2752 44.6767L31.972 58.5618L21.6978 43.9318L23.5395 41.2624L19.4268 38.2205Z" fill="black"/>
</g>
<g opacity="0.3">
<path d="M33.4355 58.1222L39.9487 45.3389L39.7831 43.1765L33.4355 58.1222Z" fill="black"/>
</g>
<path d="M2.21484 73.6677C2.23036 73.6419 2.63905 73.8954 3.45643 74.2213C4.26864 74.5627 5.46884 75.0128 7.00014 75.5405C10.0524 76.601 14.3979 77.9874 19.4678 79.5136L19.3074 79.6015C19.9127 77.346 20.5697 74.899 21.2526 72.3641L21.3095 72.5141C21.2163 72.4572 21.1181 72.3951 21.0198 72.3279C17.8847 70.3413 14.9049 68.4531 12.22 66.7511L12.1424 66.6993L12.1683 66.6114C13.4564 62.1986 14.548 58.4479 15.324 55.7733C15.712 54.4645 16.0224 53.4247 16.2448 52.6849C16.3535 52.3434 16.4362 52.0744 16.4983 51.8675C16.5604 51.6813 16.5914 51.5881 16.5966 51.5881C16.6018 51.5881 16.5811 51.6864 16.5345 51.8778C16.4828 52.0848 16.4104 52.359 16.3172 52.7056C16.1155 53.4453 15.8258 54.4955 15.4636 55.8095C14.7083 58.4893 13.6478 62.2503 12.4011 66.6735L12.3493 66.5338C15.0394 68.2306 18.0244 70.1137 21.1646 72.0951C21.2629 72.1571 21.3664 72.2192 21.4543 72.2813L21.5371 72.333L21.5112 72.4313C20.8232 74.9662 20.1662 77.4132 19.5557 79.6688L19.5195 79.7981L19.3953 79.7619C14.3255 78.2202 9.9903 76.7976 6.94841 75.6957C5.42746 75.1473 4.23243 74.6662 3.42539 74.3041C2.60801 73.9471 2.21484 73.6677 2.21484 73.6677Z" fill="#263238"/>
<path d="M12.9382 38.5048C12.9485 38.4893 13.0778 38.572 13.2951 38.7324C13.5176 38.8876 13.8176 39.1463 14.1591 39.4929C14.8523 40.1757 15.6852 41.2673 16.2853 42.6331C16.8854 44.004 17.1233 45.3542 17.1596 46.3268C17.1803 46.8131 17.1699 47.2063 17.1337 47.4804C17.1027 47.7495 17.0768 47.8995 17.0613 47.8995C17.0147 47.8943 17.0561 47.2994 16.9682 46.3423C16.8854 45.3904 16.6215 44.0816 16.037 42.7417C15.4472 41.407 14.6609 40.3309 14.0142 39.6222C13.3779 38.9135 12.9071 38.541 12.9382 38.5048Z" fill="#263238"/>
<path d="M47.0771 50.9776C47.0047 50.9828 46.7512 48.1634 46.5132 44.6869C46.2752 41.2053 46.1459 38.3807 46.2183 38.3755C46.2907 38.3703 46.5442 41.1898 46.7822 44.6662C47.0202 48.1478 47.1547 50.9725 47.0771 50.9776Z" fill="#263238"/>
<path d="M36.715 34.356C36.7253 34.3663 36.627 34.4698 36.4408 34.6664C36.2545 34.8578 35.97 35.1372 35.6079 35.4889C34.8784 36.1822 33.8127 37.1703 32.3642 38.1325L32.1935 38.2463L32.1832 38.0394C32.1469 37.1703 32.1159 36.2184 31.7641 35.2872C31.5986 34.8216 31.371 34.3612 31.0968 33.9111C30.9571 33.6886 30.8071 33.4714 30.6467 33.2541L30.5846 33.1765L30.5536 33.1351L30.5484 33.1247C30.3984 33.0937 30.7502 33.1661 30.7139 33.161L30.7036 33.1661C30.6674 33.1972 30.626 33.2437 30.5846 33.2903C30.507 33.3886 30.4449 33.5024 30.3829 33.6214C30.0207 34.3663 29.8914 35.1992 29.7362 35.9804C29.5913 36.7667 29.4672 37.5272 29.3637 38.2463L29.3327 38.4584L29.1671 38.3239C27.5789 37.0564 26.2235 35.9752 25.2251 35.1785C24.775 34.8061 24.4025 34.506 24.1128 34.268C23.8593 34.0508 23.7248 33.9318 23.7352 33.9214C23.7455 33.9111 23.8955 34.0094 24.1646 34.206C24.4646 34.4284 24.8474 34.7129 25.3182 35.0647C26.3322 35.8407 27.7083 36.8961 29.3223 38.1325L29.1257 38.2153C29.224 37.491 29.343 36.7305 29.4827 35.939C29.6379 35.1527 29.7569 34.3094 30.1501 33.5076C30.2173 33.3782 30.2897 33.2541 30.3777 33.1351C30.4242 33.073 30.4708 33.0161 30.5432 32.9644L30.5743 32.9437L30.5898 32.9333C30.5536 32.923 30.9105 33.0006 30.7605 32.9695L30.7709 32.9799L30.8019 33.0213L30.864 33.1041C31.0295 33.3265 31.1847 33.549 31.3244 33.7818C31.6089 34.2422 31.8417 34.7233 32.0124 35.2096C32.3746 36.1873 32.3953 37.1806 32.416 38.0394L32.2349 37.9462C33.6834 37.0151 34.7595 36.058 35.5148 35.3958C35.8717 35.0854 36.1614 34.8268 36.389 34.625C36.5908 34.4336 36.7046 34.3456 36.715 34.356Z" fill="#263238"/>
<path d="M32.7632 58.3343C32.6908 58.3395 32.1527 52.7161 31.5682 45.7787C30.9836 38.8362 30.5697 33.2076 30.6421 33.1973C30.7146 33.1921 31.2526 38.8103 31.8372 45.7529C32.4217 52.6954 32.8356 58.3291 32.7632 58.3343Z" fill="#263238"/>
<g opacity="0.3">
<path d="M16.4148 52.7988C16.4148 52.7988 15.9595 64.9716 15.9647 65.0026C15.9699 65.0337 14.8887 57.8117 14.8887 57.8117L16.4148 52.7988Z" fill="black"/>
</g>
<path d="M25.3904 71.3034L30.0308 76.4664H62.5346L73.3261 55.7422C73.8486 54.7385 73.1192 53.5383 71.9914 53.5383H40.1757C39.5652 53.5383 39.0168 53.9056 38.784 54.4695L32.2398 70.2688L25.9491 70.1084C25.3128 70.0929 24.9714 70.8378 25.3904 71.3034Z" fill="#455A64"/>
<path d="M25.4213 70.3155C25.4316 70.3051 25.5506 70.419 25.7731 70.6362C26.0162 70.8794 26.3318 71.195 26.7198 71.583C27.5527 72.4365 28.696 73.6161 30.0669 75.0232L29.8807 75.0542C30.8274 72.9694 31.9603 70.4604 33.145 67.7495C34.7643 64.0558 36.1766 60.6828 37.1905 58.241C37.6872 57.046 38.0959 56.0683 38.3959 55.3492C38.5304 55.0336 38.6442 54.7749 38.7322 54.568C38.8098 54.3921 38.8563 54.299 38.8667 54.3042C38.877 54.3093 38.846 54.4076 38.7839 54.5887C38.7063 54.8008 38.6132 55.0646 38.4942 55.3906C38.2355 56.0838 37.8527 57.0822 37.3716 58.3135C36.399 60.7759 35.0178 64.1593 33.3933 67.8582C32.2087 70.569 31.0602 73.0729 30.0876 75.1525L30.0152 75.3025L29.9014 75.1836C28.5615 73.7454 27.4389 72.5452 26.6267 71.6761C26.2542 71.2674 25.9541 70.9363 25.7265 70.688C25.5144 70.4552 25.411 70.3258 25.4213 70.3155Z" fill="#263238"/>
<path d="M53.208 66.5338C52.1837 67.0253 51.0094 66.6994 50.5748 65.8044C50.1454 64.9094 50.6214 63.7816 51.6457 63.2902C52.67 62.7987 53.8443 63.1246 54.2789 64.0196C54.7134 64.9146 54.2323 66.0424 53.208 66.5338Z" fill="white"/>
<path d="M21.376 72.7468L24.3196 72.4726C24.3196 72.4726 29.6119 70.7085 30.4965 70.8637C30.4965 70.8637 30.7552 71.7483 29.824 72.3174C28.8876 72.8864 27.4908 73.5641 27.4908 73.5641L29.6015 75.9801C29.8757 76.2905 30.2689 76.4715 30.6879 76.4715H37.6098C37.6098 76.4715 37.3511 77.3562 36.6217 77.5631C35.8974 77.77 30.8483 79.2755 30.8483 79.2755L19.9016 78.1166L21.376 72.7468Z" fill="#FFBE9D"/>
</g>
<defs>
<clipPath id="clip0_827_1246">
<rect width="73.497" height="193" fill="white"/>
</clipPath>
</defs>
</svg>
