<svg width="38" height="36" viewBox="0 0 38 36" fill="none" xmlns="http://www.w3.org/2000/svg">
<path fill-rule="evenodd" clip-rule="evenodd" d="M13.9813 4.83682C15.3768 4.77258 15.8217 4.7583 19.3765 4.7583C22.9313 4.7583 23.3762 4.77377 24.7705 4.83682C26.1648 4.89987 27.1166 5.12234 27.9493 5.44475C28.8214 5.77429 29.6125 6.28942 30.2668 6.95564C30.9331 7.60878 31.447 8.39873 31.7754 9.27196C32.0989 10.1047 32.3202 11.0565 32.3845 12.4484C32.4487 13.8463 32.463 14.2912 32.463 17.8448C32.463 21.3996 32.4475 21.8445 32.3845 23.24C32.3214 24.6319 32.0989 25.5837 31.7754 26.4165C31.447 27.2898 30.9322 28.0811 30.2668 28.7352C29.6125 29.4014 28.8214 29.9153 27.9493 30.2437C27.1166 30.5673 26.1648 30.7885 24.7729 30.8528C23.3762 30.917 22.9313 30.9313 19.3765 30.9313C15.8217 30.9313 15.3768 30.9158 13.9813 30.8528C12.5893 30.7897 11.6376 30.5673 10.8048 30.2437C9.9315 29.9153 9.14024 29.4005 8.48613 28.7352C7.82036 28.0816 7.30515 27.2907 6.97642 26.4177C6.65402 25.5849 6.43274 24.6331 6.3685 23.2412C6.30425 21.8433 6.28998 21.3984 6.28998 17.8448C6.28998 14.29 6.30544 13.8451 6.3685 12.4508C6.43155 11.0565 6.65402 10.1047 6.97642 9.27196C7.30564 8.39883 7.82124 7.60796 8.48732 6.95445C9.1405 6.28883 9.93097 5.77363 10.8036 5.44475C11.6364 5.12234 12.5882 4.90106 13.9801 4.83682H13.9813ZM24.6646 7.19239C23.2846 7.12934 22.8706 7.11625 19.3765 7.11625C15.8824 7.11625 15.4684 7.12934 14.0883 7.19239C12.8118 7.25068 12.1194 7.46364 11.6578 7.64328C11.0475 7.88122 10.6109 8.16317 10.1529 8.6212C9.7187 9.0436 9.38456 9.55781 9.17496 10.1261C8.99532 10.5877 8.78236 11.2801 8.72407 12.5567C8.66101 13.9367 8.64793 14.3507 8.64793 17.8448C8.64793 21.3389 8.66101 21.7529 8.72407 23.1329C8.78236 24.4095 8.99532 25.1019 9.17496 25.5635C9.38434 26.1309 9.71864 26.6461 10.1529 27.0684C10.5752 27.5026 11.0903 27.8369 11.6578 28.0463C12.1194 28.226 12.8118 28.4389 14.0883 28.4972C15.4684 28.5603 15.8812 28.5734 19.3765 28.5734C22.8718 28.5734 23.2846 28.5603 24.6646 28.4972C25.9411 28.4389 26.6335 28.226 27.0951 28.0463C27.7055 27.8084 28.1421 27.5264 28.6001 27.0684C29.0343 26.6461 29.3686 26.1309 29.578 25.5635C29.7577 25.1019 29.9706 24.4095 30.0289 23.1329C30.092 21.7529 30.105 21.3389 30.105 17.8448C30.105 14.3507 30.092 13.9367 30.0289 12.5567C29.9706 11.2801 29.7577 10.5877 29.578 10.1261C29.3401 9.51584 29.0581 9.07923 28.6001 8.6212C28.1777 8.18705 27.6635 7.85292 27.0951 7.64328C26.6335 7.46364 25.9411 7.25068 24.6646 7.19239ZM17.705 21.879C18.6385 22.2676 19.6779 22.3201 20.6458 22.0274C21.6137 21.7347 22.4499 21.1151 23.0117 20.2744C23.5735 19.4337 23.826 18.424 23.726 17.4178C23.6261 16.4116 23.1799 15.4714 22.4637 14.7576C22.0072 14.3013 21.4551 13.9519 20.8473 13.7346C20.2395 13.5173 19.5911 13.4375 18.9488 13.5008C18.3064 13.5642 17.6861 13.7692 17.1325 14.101C16.5789 14.4329 16.1057 14.8834 15.7471 15.4201C15.3885 15.9567 15.1533 16.5662 15.0585 17.2047C14.9638 17.8432 15.0117 18.4947 15.199 19.1124C15.3862 19.7301 15.7081 20.2987 16.1414 20.777C16.5747 21.2554 17.1087 21.6318 17.705 21.879ZM14.6201 13.0885C15.2447 12.4638 15.9863 11.9684 16.8024 11.6303C17.6185 11.2923 18.4931 11.1183 19.3765 11.1183C20.2598 11.1183 21.1345 11.2923 21.9506 11.6303C22.7667 11.9684 23.5082 12.4638 24.1328 13.0885C24.7574 13.7131 25.2529 14.4546 25.591 15.2707C25.929 16.0868 26.103 16.9615 26.103 17.8448C26.103 18.7281 25.929 19.6028 25.591 20.4189C25.2529 21.235 24.7574 21.9765 24.1328 22.6012C22.8714 23.8626 21.1605 24.5713 19.3765 24.5713C17.5925 24.5713 15.8816 23.8626 14.6201 22.6012C13.3587 21.3397 12.65 19.6288 12.65 17.8448C12.65 16.0608 13.3587 14.3499 14.6201 13.0885ZM27.5948 12.1201C27.7496 11.974 27.8735 11.7985 27.9592 11.6037C28.0449 11.4089 28.0907 11.199 28.0938 10.9862C28.0969 10.7734 28.0573 10.5622 27.9773 10.365C27.8973 10.1679 27.7785 9.98875 27.6281 9.83829C27.4776 9.68783 27.2985 9.56909 27.1013 9.48909C26.9041 9.4091 26.6929 9.36948 26.4802 9.37258C26.2674 9.37568 26.0574 9.42144 25.8627 9.50715C25.6679 9.59286 25.4923 9.71677 25.3463 9.87155C25.0623 10.1726 24.9069 10.5724 24.9129 10.9862C24.9189 11.4 25.086 11.7951 25.3786 12.0877C25.6712 12.3804 26.0664 12.5474 26.4802 12.5535C26.8939 12.5595 27.2938 12.404 27.5948 12.1201Z" fill="white"/>
</svg>
