<svg width="37" height="36" viewBox="0 0 37 36" fill="none" xmlns="http://www.w3.org/2000/svg">
<path d="M11.5492 30.9311H6.36958V14.251H11.5492V30.9311ZM8.95658 11.9757C7.30032 11.9757 5.95691 10.6038 5.95691 8.94749C5.95691 8.15191 6.27295 7.38892 6.83549 6.82636C7.39804 6.2638 8.16102 5.94775 8.95658 5.94775C9.75214 5.94775 10.5151 6.2638 11.0777 6.82636C11.6402 7.38892 11.9563 8.15191 11.9563 8.94749C11.9563 10.6038 10.6123 11.9757 8.95658 11.9757ZM30.9347 30.9311H25.7662V22.8113C25.7662 20.8762 25.7272 18.3945 23.0733 18.3945C20.3803 18.3945 19.9676 20.497 19.9676 22.6719V30.9311H14.7936V14.251H19.7613V16.5263H19.8338C20.5253 15.2158 22.2145 13.8327 24.7346 13.8327C29.9766 13.8327 30.9402 17.2847 30.9402 21.7685V30.9311H30.9347Z" fill="white"/>
</svg>
