<svg width="67" height="118" viewBox="0 0 67 118" fill="none" xmlns="http://www.w3.org/2000/svg">
<g clip-path="url(#clip0_827_1432)">
<path d="M14.6663 63.6826C12.1856 62.1271 9.34852 61.1471 6.43608 60.8525C5.09294 60.7154 3.61959 60.7565 2.54371 61.5651C2.31756 61.7365 2.09142 61.9969 2.14624 62.2778C2.18051 62.4834 2.35868 62.6342 2.53 62.7644C5.87416 65.3205 10.9384 65.6425 14.6663 63.6826Z" fill="#E0E0E0"/>
<path d="M14.4532 63.4499C12.5893 61.9971 10.7185 60.5306 9.13548 58.7763C7.55934 57.0152 6.27787 54.9319 5.80503 52.6157C5.66112 51.9167 5.62 51.1081 6.06543 50.553C10.3073 53.856 13.6309 58.139 14.4532 63.4499Z" fill="#E0E0E0"/>
<path d="M14.6167 63.6485C14.2946 61.3322 14.185 58.9475 14.7127 56.6723C15.2472 54.3972 16.4875 52.2112 18.4269 50.916C19.1601 52.6292 18.8449 54.596 18.3309 56.3845C17.536 59.1462 16.2819 61.7777 14.6441 64.1419" fill="#E0E0E0"/>
<path d="M18.7709 71.0906C16.249 71.399 14.0561 72.7284 12.1716 74.4279C10.2871 76.1342 8.95083 78.4299 8.39575 80.9106C10.8696 80.7598 12.9666 79.0124 14.4879 77.0593C16.0092 75.1063 17.0645 72.9614 18.7366 71.1317" fill="#E0E0E0"/>
<path d="M19.675 72.2832C17.6466 67.2807 18.3798 61.2571 21.5527 56.885C22.9918 61.9972 22.4641 67.7672 19.675 72.2832Z" fill="#E0E0E0"/>
<path d="M25.1646 78.8206C22.8757 78.6767 20.5526 79.225 18.5653 80.3694C16.578 81.5138 14.9402 83.2544 13.9123 85.3034C13.7752 85.5843 13.6519 85.9338 13.8369 86.1874C14.0014 86.4067 14.3098 86.4272 14.5839 86.4067C16.8042 86.2628 18.7641 84.9265 20.3882 83.412C22.0123 81.8907 23.4239 80.1364 25.2125 78.8206" fill="#E0E0E0"/>
<path d="M24.9857 78.4643C23.807 74.6884 23.7317 70.5699 24.7733 66.7529C25.1845 65.2453 25.8766 63.6623 27.2746 62.9496C27.391 62.8879 27.535 62.8331 27.6583 62.8811C27.7748 62.929 27.8433 63.0455 27.8982 63.162C28.3916 64.1968 28.5355 65.3755 28.4875 66.5199C28.4395 67.6643 28.1997 68.795 27.9598 69.9189C27.5213 71.9953 27.2883 74.2293 26.1507 76.0247C25.8834 76.4496 25.6436 76.9087 25.4243 77.3678C25.2119 77.8201 25.205 77.9846 25.0063 78.3478" fill="#E0E0E0"/>
<path d="M39.5138 80.6298C38.438 76.5387 39.5824 71.5705 42.159 68.2195C42.3509 67.9728 42.5976 67.7055 42.9128 67.7329C43.3857 67.774 43.509 68.4113 43.4885 68.8842C43.3034 73.0712 41.9055 77.1897 39.5138 80.6298Z" fill="#E0E0E0"/>
<path d="M40.8227 81.5207C45.7978 82.8159 51.4993 81.5549 55.6384 78.5055C53.1851 77.2651 50.3001 76.9088 47.6206 77.5187C44.9412 78.1354 42.4879 79.3346 40.8227 81.5207Z" fill="#E0E0E0"/>
<path d="M41.9251 78.793C44.7073 74.2497 50.0525 71.2892 55.3703 71.0151C54.7604 73.1806 52.9786 74.8596 50.9708 75.8806C48.9629 76.8948 46.7221 77.3403 44.5155 77.7651C43.6589 77.9364 42.4802 78.1215 41.9251 78.793Z" fill="#E0E0E0"/>
<path d="M39.7872 65.5673C40.541 62.9838 41.3016 60.3798 41.5072 57.6935C41.7128 55.0072 41.329 52.2044 39.9379 49.9019C37.3339 54.9386 37.0735 60.8183 39.7118 65.8346" fill="#E0E0E0"/>
<path d="M48.5521 61.1405C51.5948 55.6103 57.8034 51.1902 64.0874 50.5735C61.6615 56.6108 55.0486 61.2707 48.5521 61.1405Z" fill="#E0E0E0"/>
<path d="M46.634 62.2232C51.1705 62.9154 55.0355 65.8141 59.2773 67.5684C60.1819 67.9453 61.1619 68.2468 62.135 68.1166C63.1081 67.9864 64.0674 67.3354 64.2867 66.376C64.4649 65.5811 64.1086 64.7382 63.5329 64.1557C62.9641 63.5732 62.2103 63.21 61.4565 62.8948C56.8378 60.9692 51.8832 60.9212 47.0177 62.093" fill="#E0E0E0"/>
<path d="M44.0089 65.4097C45.0368 65.7044 45.3863 66.2389 46.2017 66.931C48.9634 69.2815 52.2733 70.981 55.7888 71.8581C56.152 71.9472 56.6385 71.9884 56.8167 71.6526C56.9743 71.3647 56.7756 71.0153 56.57 70.7549C55.0966 68.9115 52.9928 67.6505 50.7794 66.8214C48.5659 65.999 46.6472 65.0054 44.0089 65.2178" fill="#E0E0E0"/>
<path d="M41.0489 46.1876C44.7357 49.6346 49.9369 51.4026 54.96 50.9229C55.1862 50.9023 55.4397 50.8681 55.5905 50.6968C55.94 50.313 55.522 49.7305 55.1108 49.4084C51.0265 46.215 46.072 44.8925 41.0489 46.1876Z" fill="#E0E0E0"/>
<path d="M44.5569 44.8995C49.4361 41.2402 56.1244 40.1369 61.915 42.0351C59.729 44.1868 56.6932 45.3518 53.6437 45.667C50.5942 45.9891 47.5379 45.6465 44.5569 44.8995Z" fill="#E0E0E0"/>
<path d="M43.1655 36.066C42.7612 31.9818 43.0216 28.761 42.7406 24.6562C42.7201 24.3272 42.6447 23.9366 42.3432 23.8133C41.9183 23.6488 41.5619 24.1765 41.418 24.6082C40.2051 28.3909 40.8698 32.7287 43.1586 35.9701" fill="#E0E0E0"/>
<path d="M42.8712 36.5185C45.6397 34.8053 47.7161 32.5713 49.6348 29.9466C50.9711 28.1169 52.095 25.9309 51.7935 23.6832C49.9158 23.6489 48.1341 24.6837 46.9143 26.1091C45.6945 27.5345 44.9681 29.3162 44.4267 31.1116C43.8854 32.907 43.5016 34.7504 42.8712 36.5185Z" fill="#E0E0E0"/>
<path d="M49.5113 34.6751C55.5829 32.4274 61.2501 29.0901 66.1567 24.8619C64.1694 24.0601 61.8943 24.5398 59.907 25.3416C55.3636 27.1713 51.6562 30.2688 49.4291 34.6271" fill="#E0E0E0"/>
<path d="M44.7356 38.7524C47.8056 39.0882 50.9305 39.3075 53.98 38.8004C56.9747 38.3001 59.8049 37.1146 62.6076 35.9359C62.8406 35.84 63.0942 35.7235 63.197 35.4905C63.3066 35.2438 63.1901 34.9354 62.9846 34.7504C62.779 34.5654 62.5117 34.4763 62.2513 34.4078C59.2087 33.558 55.9193 33.9555 52.9247 34.9628C49.93 35.9702 47.4767 37.1694 44.7356 38.7524Z" fill="#E0E0E0"/>
<path d="M27.192 46.325C25.0951 42.0968 25.2321 37.156 27.0413 32.7976C28.3159 34.7369 28.4735 37.2108 28.2405 39.527C28.0075 41.8364 27.3017 44.2143 27.2605 46.5374" fill="#E0E0E0"/>
<path d="M18.8189 42.1035C13.5902 42.0007 8.35469 44.2347 4.7981 48.0791C7.409 48.4903 10.1021 47.8187 12.4732 46.6537C14.8511 45.4956 16.9618 43.8647 19.0519 42.2474" fill="#E0E0E0"/>
<path d="M13.1921 40.219C10.6292 40.0134 8.169 39.6913 5.70885 40.452C3.24871 41.2058 1.00785 42.919 0.000488281 45.2901C2.39211 45.5573 4.82485 44.9611 7.01773 43.9675C9.21062 42.967 11.2116 41.5896 13.1921 40.219Z" fill="#E0E0E0"/>
<path d="M21.5247 40.308C19.2222 38.8003 16.858 37.2653 14.1717 36.6349C11.4922 36.0113 8.38106 36.4704 6.51025 38.492C8.68259 39.7666 11.3141 39.9173 13.829 39.9173C16.344 39.9173 19.4346 39.8899 21.8057 40.726" fill="#E0E0E0"/>
<path d="M21.5391 40.4246C17.5988 36.5596 16.1117 29.6109 17.6947 24.3274C20.7922 29.0284 22.1764 34.8327 21.5391 40.4246Z" fill="#E0E0E0"/>
<path d="M32.3665 29.4739C33.1066 27.747 33.6342 25.9378 34.2989 24.1767C34.9637 22.4223 35.7928 20.6886 37.0538 19.2975C38.3147 17.8995 40.0553 16.8647 41.9329 16.7688C40.7611 22.0866 37.2251 26.8424 32.4692 29.5013" fill="#E0E0E0"/>
<path d="M30.4063 31.7559C29.1796 30.0633 27.7542 27.7676 26.089 26.5067C24.4238 25.2458 22.2515 24.4783 20.2162 24.9648C22.2926 28.6585 26.1987 31.2694 30.4063 31.7559Z" fill="#E0E0E0"/>
<path d="M30.7968 29.6108C29.9882 27.5618 29.1796 25.4922 28.8575 23.3199C28.5286 21.1476 28.7273 18.8176 29.8443 16.9263C32.0029 21.0105 32.7019 25.3963 30.9133 29.6587" fill="#E0E0E0"/>
<path d="M32.3861 16.9264C33.6128 12.8764 37.3201 9.89541 41.3221 8.52485C41.8292 8.35353 42.3638 8.20963 42.8914 8.29186C43.4191 8.37409 43.933 8.73729 44.0495 9.2581C44.1934 9.95023 43.6247 10.567 43.0902 11.0193C39.9721 13.685 36.3059 15.7066 32.3861 16.9264Z" fill="#E0E0E0"/>
<path d="M32.435 13.6165C32.5926 11.0056 32.7502 8.35354 33.6 5.87969C34.4497 3.40583 36.0875 1.08274 38.4654 0C38.8697 2.63832 37.7048 5.26293 36.3068 7.53121C34.902 9.79948 33.2093 11.9444 32.3665 14.4731" fill="#E0E0E0"/>
<path d="M32.3664 15.4119C31.3522 12.4583 31.2494 8.70983 29.4814 6.14004C28.2479 4.34461 26.2674 3.11796 25.2052 1.21289C24.4994 2.98776 24.7118 5.03674 25.4519 6.80476C26.192 8.57278 27.4118 10.0872 28.7207 11.4852C30.0296 12.8832 31.1535 13.9317 32.3664 15.4119Z" fill="#E0E0E0"/>
<path d="M32.386 102.339C32.3106 102.339 32.2421 82.6512 32.2353 58.3649C32.2284 34.0718 32.2901 14.3838 32.3655 14.3838C32.4408 14.3838 32.5094 34.0718 32.5162 58.3649C32.5231 82.6512 32.4683 102.339 32.386 102.339Z" fill="#E0E0E0"/>
<path d="M49.594 43.3576C49.6009 43.3782 49.3336 43.4741 48.8539 43.6386C48.3194 43.8168 47.6341 44.0498 46.8186 44.3239C45.0986 44.9064 42.7412 45.7561 40.1783 46.8046C37.6428 47.8942 35.2511 48.7782 33.8874 49.9569C33.209 50.5394 32.8184 51.1698 32.6265 51.6289C32.4278 52.0881 32.3935 52.3759 32.373 52.369C32.3661 52.369 32.3661 52.2937 32.3798 52.1635C32.4004 52.0333 32.4346 51.8345 32.5237 51.5878C32.6882 51.1013 33.072 50.4297 33.7572 49.8061C34.4425 49.1825 35.395 48.6206 36.4846 48.1135C37.5742 47.6064 38.7872 47.0718 40.0686 46.5442C42.6384 45.4889 45.0164 44.6734 46.757 44.132C47.6273 43.8579 48.3331 43.6592 48.8265 43.529C49.313 43.3988 49.5872 43.3371 49.594 43.3576Z" fill="#E0E0E0"/>
<path d="M55.2334 29.5012C55.2402 29.5081 55.1649 29.5835 55.0278 29.7205C54.8633 29.8781 54.6509 30.0769 54.3973 30.3167C53.808 30.8512 53.0131 31.5776 52.04 32.4616C50.0047 34.2776 47.243 36.7378 44.1867 39.4515C41.1235 42.1789 38.4715 44.7829 36.6349 46.7497C35.7167 47.7296 34.9903 48.5451 34.4969 49.1071C34.2639 49.3675 34.0789 49.5867 33.9281 49.7581C33.7979 49.9088 33.7225 49.9774 33.7157 49.9774C33.7088 49.9705 33.7636 49.8814 33.887 49.7238C34.0035 49.5662 34.1816 49.3263 34.4146 49.0385C34.8806 48.4492 35.5865 47.6131 36.491 46.6126C38.2933 44.6116 40.9248 41.9733 44.0017 39.239C47.0786 36.5185 49.8745 34.0721 51.9098 32.3109C52.9103 31.4543 53.7258 30.7553 54.3288 30.2345C54.5961 30.0084 54.8222 29.8302 54.9935 29.6794C55.1443 29.5561 55.2265 29.4944 55.2334 29.5012Z" fill="#E0E0E0"/>
<path d="M40.8774 42.22C40.7951 42.1857 41.4393 40.7055 42.0766 38.8347C42.7208 36.9639 43.0223 35.3878 43.1045 35.4015C43.1799 35.4083 42.9949 37.0324 42.3439 38.9238C42.0218 39.8695 41.6723 40.6987 41.3913 41.288C41.1104 41.8842 40.9116 42.2405 40.8774 42.22Z" fill="#E0E0E0"/>
<path d="M32.4072 54.1439C32.3935 54.1576 32.2222 53.9589 31.9344 53.5957C31.6123 53.1845 31.208 52.6637 30.7214 52.047C29.7072 50.7313 28.3024 48.9221 26.7262 46.9348C25.1501 44.9475 23.7042 43.1726 22.6557 41.8843C22.1623 41.2744 21.7443 40.7605 21.4222 40.3561C21.1344 39.9929 20.9836 39.7874 20.9973 39.7737C21.011 39.76 21.196 39.945 21.5113 40.2876C21.8265 40.6303 22.2719 41.1305 22.8202 41.761C23.9097 43.015 25.3831 44.7762 26.9592 46.7635C28.5354 48.7508 29.9196 50.5873 30.8927 51.9305C31.3793 52.6021 31.7699 53.1503 32.0303 53.534C32.2838 53.9109 32.4209 54.1302 32.4072 54.1439Z" fill="#E0E0E0"/>
<path d="M28.631 49.2991C28.583 49.347 27.5757 48.1546 27.048 46.3387C26.6574 45.0572 26.6437 43.8922 26.6916 43.3577L26.815 43.3646C26.7602 43.5907 26.7191 43.714 26.6985 43.7072C26.6779 43.7003 26.6779 43.577 26.6916 43.344L26.815 43.3508C26.863 43.8785 26.9383 45.0092 27.3221 46.2564C27.8361 48.0176 28.7064 49.2511 28.631 49.2991Z" fill="#E0E0E0"/>
<path d="M23.7588 43.1725C23.7246 43.2136 23.3957 42.8024 22.6556 42.5283C21.9155 42.2405 20.8122 42.1788 19.5924 42.2816C18.3726 42.3707 17.283 42.59 16.5086 42.7819C15.7274 42.9737 15.2545 43.1245 15.2408 43.0834C15.2271 43.0491 15.6794 42.8298 16.4538 42.5831C17.2281 42.3364 18.3314 42.0897 19.5718 41.9938C20.8053 41.8842 21.9703 41.9801 22.7309 42.3364C23.5053 42.6859 23.7863 43.1656 23.7588 43.1725Z" fill="#E0E0E0"/>
<path d="M22.6078 41.6855C22.5873 41.7266 21.9637 41.4251 20.9152 41.0688C19.8667 40.7056 18.3797 40.3287 16.6939 40.1985C15.0081 40.0751 13.4799 40.219 12.3903 40.4178C11.3008 40.6096 10.6429 40.8152 10.6292 40.7672C10.6223 40.7467 10.7799 40.685 11.0746 40.5754C11.3693 40.4657 11.8079 40.3424 12.3492 40.219C13.4388 39.9655 15.0013 39.7873 16.7144 39.9107C18.4276 40.0409 19.9421 40.4589 20.9769 40.8769C21.4977 41.0825 21.9089 41.2744 22.183 41.4251C22.4708 41.5759 22.6147 41.665 22.6078 41.6855Z" fill="#E0E0E0"/>
<path d="M32.3667 35.4083C32.2913 35.4289 31.7363 33.5101 31.1332 31.1254C30.5302 28.7406 30.0984 26.7944 30.1738 26.7738C30.2492 26.7533 30.8043 28.6721 31.4073 31.0568C32.0172 33.4347 32.4421 35.3878 32.3667 35.4083Z" fill="#E0E0E0"/>
<path d="M32.448 35.4083C32.3658 35.4358 32.0095 34.1543 31.0843 32.8454C30.1798 31.5091 29.0285 30.8375 29.0696 30.769C29.0833 30.7416 29.4054 30.8581 29.844 31.1665C30.2894 31.4748 30.8376 32.0025 31.3105 32.6809C32.2767 34.0378 32.5166 35.4015 32.448 35.4083Z" fill="#E0E0E0"/>
<path d="M32.3865 91.841C32.3591 91.8478 32.2974 91.3681 32.0782 90.5321C31.8589 89.696 31.4477 88.5105 30.7624 87.1262C29.3987 84.344 26.9249 80.8217 23.7794 77.2925C22.2239 75.5108 20.7094 73.8319 19.4279 72.2215C18.1396 70.6179 17.0843 69.0829 16.3168 67.7329C15.5424 66.3829 15.0421 65.2179 14.7475 64.4024C14.6036 63.9913 14.4939 63.6692 14.4391 63.4499C14.3774 63.2306 14.35 63.1141 14.3569 63.1073C14.3843 63.1004 14.5282 63.5595 14.8503 64.3613C15.1723 65.1631 15.7 66.3007 16.4949 67.6301C17.283 68.9595 18.352 70.4671 19.6404 72.057C20.9287 73.6468 22.4431 75.3189 24.0056 77.1006C27.1579 80.6435 29.6317 84.2138 30.9543 87.0372C31.619 88.4488 32.0096 89.6549 32.1946 90.5047C32.2837 90.9295 32.3454 91.2653 32.366 91.4915C32.3865 91.7245 32.4002 91.841 32.3865 91.841Z" fill="#E0E0E0"/>
<path d="M47.9352 74.2774C47.9421 74.298 47.6474 74.4487 47.1198 74.7365C46.5989 75.0312 45.8588 75.4835 45.0091 76.1345C44.1593 76.7855 43.2068 77.6421 42.2337 78.6632C41.2606 79.6911 40.2533 80.8903 39.2322 82.1718C37.1832 84.7416 35.2713 87.0167 34.12 88.8327C33.5375 89.7304 33.1127 90.4911 32.8386 91.0256C32.5576 91.5601 32.4137 91.8548 32.3931 91.8479C32.3863 91.8411 32.4137 91.7657 32.4685 91.6149C32.5302 91.471 32.6124 91.2449 32.7426 90.9776C32.9893 90.4294 33.3868 89.6482 33.9556 88.7299C35.0726 86.8728 36.9708 84.5634 39.0129 82.0005C40.0408 80.719 41.055 79.5198 42.0487 78.4919C43.0423 77.4639 44.0154 76.6142 44.8926 75.9769C45.7698 75.3396 46.5304 74.9078 47.0786 74.6406C47.3459 74.5035 47.572 74.4213 47.7159 74.3596C47.853 74.298 47.9352 74.2705 47.9352 74.2774Z" fill="#E0E0E0"/>
<path d="M48.244 79.9788C48.2509 80.02 47.5861 80.1022 46.524 80.2324C45.4618 80.3694 43.9884 80.5476 42.4397 81.0342C40.8978 81.5344 39.6163 82.3019 38.7803 82.9529C37.9374 83.604 37.54 84.1453 37.4988 84.1111C37.4851 84.1042 37.5674 83.9534 37.7524 83.7136C37.9374 83.4738 38.2389 83.1517 38.6501 82.7953C39.4724 82.0895 40.7676 81.274 42.3506 80.7601C43.9336 80.2598 45.4344 80.1159 46.5034 80.0268C47.5724 79.9514 48.2371 79.9377 48.244 79.9788Z" fill="#E0E0E0"/>
<path d="M37.9995 83.4872C37.9104 83.4392 38.6848 82.2537 39.2878 80.657C39.8497 79.0466 39.9868 77.6349 40.0896 77.6555C40.1238 77.6623 40.1238 78.0118 40.0622 78.5806C39.9936 79.1425 39.8566 79.9306 39.5619 80.7598C39.2604 81.589 38.8629 82.2743 38.5614 82.754C38.2462 83.2268 38.0337 83.5009 37.9995 83.4872Z" fill="#E0E0E0"/>
<path d="M52.9715 58.982C52.9784 58.9888 52.8824 59.0437 52.6974 59.1259C52.485 59.2218 52.2177 59.3452 51.8888 59.4959C51.5324 59.6467 51.1007 59.8386 50.621 60.099C50.1345 60.3525 49.5657 60.6061 48.9763 60.9624C48.6748 61.1338 48.3596 61.3119 48.0375 61.4969C47.7086 61.682 47.3865 61.9081 47.0439 62.1206C46.3517 62.5386 45.6596 63.0594 44.9195 63.587C43.4667 64.6903 41.9454 65.9924 40.4789 67.4931C39.0261 69.0144 37.7789 70.5769 36.7236 72.0639C36.2233 72.8246 35.7299 73.5304 35.3325 74.2431C35.1269 74.5926 34.9213 74.9215 34.7431 75.2573C34.5718 75.5863 34.4005 75.9083 34.2429 76.2167C33.9071 76.8198 33.6672 77.3954 33.4342 77.8888C33.1944 78.3822 33.0162 78.8208 32.8792 79.1771C32.7421 79.5129 32.6256 79.7802 32.5365 79.9995C32.4543 80.1845 32.4063 80.2804 32.3995 80.2804C32.3926 80.2804 32.42 80.1776 32.4817 79.9789C32.5571 79.7596 32.653 79.4786 32.7695 79.136C32.8929 78.766 33.0573 78.3274 33.2835 77.8203C33.5028 77.32 33.7358 76.7307 34.0578 76.1208C34.2155 75.8124 34.3799 75.4835 34.5444 75.1477C34.7157 74.8119 34.9213 74.4761 35.1269 74.1198C35.5175 73.4002 36.004 72.6807 36.5043 71.9132C37.5528 70.4056 38.8068 68.8226 40.2665 67.2944C41.7467 65.7799 43.2885 64.4711 44.755 63.3746C45.5088 62.8469 46.2078 62.333 46.9137 61.9218C47.2631 61.7094 47.5921 61.4901 47.921 61.3051C48.2499 61.1269 48.572 60.9487 48.8735 60.7843C49.4766 60.4416 50.0522 60.1881 50.5456 59.9551C51.039 59.7152 51.4776 59.5302 51.8408 59.3931C52.1766 59.2629 52.4507 59.1601 52.67 59.0711C52.8687 59.0025 52.9715 58.9751 52.9715 58.982Z" fill="#E0E0E0"/>
<path d="M40.6647 67.2258C40.6373 67.2189 40.7744 66.7461 41.3431 66.2184C41.8914 65.6908 42.8987 65.2042 44.0706 65.17C45.2355 65.1357 46.2497 65.4646 46.9419 65.7319C47.634 66.006 48.0383 66.2253 48.0246 66.2595C48.0109 66.3007 47.5792 66.143 46.8733 65.9238C46.1744 65.7113 45.1876 65.4304 44.0774 65.4578C42.9741 65.492 42.0216 65.9169 41.4734 66.3692C40.9114 66.8283 40.7127 67.2532 40.6647 67.2258Z" fill="#E0E0E0"/>
<path d="M38.8281 69.124C38.7527 69.0829 39.4449 68.0618 39.6025 66.6022C39.7875 65.1494 39.3421 63.9981 39.4312 63.9707C39.4654 63.957 39.6162 64.2243 39.7532 64.704C39.8903 65.1837 39.9794 65.8758 39.8903 66.6296C39.8012 67.3903 39.5545 68.0413 39.3147 68.473C39.068 68.9184 38.8555 69.1446 38.8281 69.124Z" fill="#E0E0E0"/>
<path d="M18.7912 94.6641C19.2161 102.188 21.4843 109.843 24.9724 117.58H40.1376C43.4612 109.918 45.5719 102.278 45.9488 94.6641H18.7912Z" fill="#E0E0E0"/>
<path d="M43.4885 106.842C43.4885 106.917 38.4928 106.986 32.3322 106.986C26.1715 106.986 21.1758 106.924 21.1758 106.842C21.1758 106.766 26.1715 106.698 32.3322 106.698C38.4928 106.698 43.4885 106.759 43.4885 106.842Z" fill="#FAFAFA"/>
<path d="M43.1532 109.569C43.1532 109.644 38.4728 109.713 32.6959 109.713C26.919 109.713 22.2385 109.651 22.2385 109.569C22.2385 109.494 26.919 109.425 32.6959 109.425C38.4728 109.425 43.1532 109.487 43.1532 109.569Z" fill="#FAFAFA"/>
<path d="M25.2126 99.6052C25.288 99.6052 25.3565 101.168 25.3565 103.1C25.3565 105.033 25.2949 106.595 25.2126 106.595C25.1373 106.595 25.0687 105.033 25.0687 103.1C25.0687 101.168 25.1373 99.6052 25.2126 99.6052Z" fill="#FAFAFA"/>
<path d="M33.3395 99.6052C33.4149 99.6052 33.4834 101.222 33.4834 103.223C33.4834 105.225 33.4218 106.842 33.3395 106.842C33.2641 106.842 33.1956 105.225 33.1956 103.223C33.1956 101.222 33.2573 99.6052 33.3395 99.6052Z" fill="#FAFAFA"/>
<path d="M40.9666 99.5435C41.042 99.5435 41.1105 101.195 41.1105 103.23C41.1105 105.266 41.0488 106.924 40.9666 106.924C40.8912 106.924 40.8227 105.272 40.8227 103.23C40.8227 101.195 40.8912 99.5435 40.9666 99.5435Z" fill="#FAFAFA"/>
<path d="M45.4686 99.6051C45.4686 99.6805 39.6095 99.749 32.3866 99.749C25.157 99.749 19.3047 99.6873 19.3047 99.6051C19.3047 99.5297 25.1638 99.4612 32.3866 99.4612C39.6095 99.4612 45.4686 99.5229 45.4686 99.6051Z" fill="#FAFAFA"/>
</g>
<defs>
<clipPath id="clip0_827_1432">
<rect width="66.1567" height="117.58" fill="white"/>
</clipPath>
</defs>
</svg>
