<svg width="3" height="2" viewBox="0 0 3 2" fill="none" xmlns="http://www.w3.org/2000/svg">
<path d="M1.3116 0.44458V1.82941H1.17014V0.573303H0.843018V0.44458H1.3116Z" fill="#E0E0E0"/>
<path d="M2.67737 1.41671C2.67737 1.67415 2.47402 1.84281 2.20878 1.84281C1.84187 1.84281 1.64294 1.58981 1.64294 1.1504C1.64294 0.679906 1.89934 0.435791 2.27509 0.435791C2.39887 0.435791 2.51381 0.457976 2.60222 0.511239L2.54475 0.626647C2.47402 0.577822 2.38118 0.560071 2.27509 0.560071C1.97891 0.560071 1.78441 0.750929 1.78441 1.12821C1.78441 1.15928 1.7844 1.19923 1.78882 1.23917C1.85955 1.08826 2.0187 0.999485 2.20878 0.999485C2.48286 0.999485 2.67737 1.16371 2.67737 1.41671ZM2.5359 1.42116C2.5359 1.23917 2.40329 1.12377 2.1911 1.12377C1.97891 1.12377 1.83745 1.25248 1.83745 1.42559C1.83745 1.5765 1.96565 1.72298 2.19995 1.72298C2.39887 1.72298 2.5359 1.60314 2.5359 1.42116Z" fill="#E0E0E0"/>
</svg>
