<svg width="8" height="2" viewBox="0 0 8 2" fill="none" xmlns="http://www.w3.org/2000/svg">
<path d="M1.41133 0.1521V1.53693H1.26988V0.280815H0.942749V0.1521H1.41133Z" fill="#263238"/>
<path d="M1.74268 0.844648C1.74268 0.405229 1.97255 0.138916 2.29083 0.138916C2.60912 0.138916 2.84341 0.40079 2.84341 0.844648C2.84341 1.28407 2.60912 1.55038 2.29083 1.55038C1.97255 1.55038 1.74268 1.28407 1.74268 0.844648ZM2.69753 0.844648C2.69753 0.476246 2.53397 0.272075 2.29083 0.272075C2.05212 0.272075 1.88414 0.476246 1.88414 0.844648C1.88414 1.21305 2.0477 1.41722 2.29083 1.41722C2.52955 1.41722 2.69753 1.21305 2.69753 0.844648Z" fill="#263238"/>
<path d="M3.0249 1.43929C3.0249 1.37715 3.07353 1.33276 3.131 1.33276C3.18846 1.33276 3.23709 1.37715 3.23709 1.43929C3.23709 1.50143 3.18846 1.55025 3.131 1.55025C3.07353 1.54581 3.0249 1.50143 3.0249 1.43929Z" fill="#263238"/>
<path d="M3.41858 0.844648C3.41858 0.405229 3.64845 0.138916 3.96673 0.138916C4.28502 0.138916 4.51931 0.40079 4.51931 0.844648C4.51931 1.28407 4.28502 1.55038 3.96673 1.55038C3.64845 1.55038 3.41858 1.28407 3.41858 0.844648ZM4.37343 0.844648C4.37343 0.476246 4.20987 0.272075 3.96673 0.272075C3.72802 0.272075 3.56004 0.476246 3.56004 0.844648C3.56004 1.21305 3.7236 1.41722 3.96673 1.41722C4.20987 1.41722 4.37343 1.21305 4.37343 0.844648Z" fill="#263238"/>
<path d="M4.7229 0.844648C4.7229 0.405229 4.95277 0.138916 5.27106 0.138916C5.58934 0.138916 5.82363 0.40079 5.82363 0.844648C5.82363 1.28407 5.58934 1.55038 5.27106 1.55038C4.95277 1.55038 4.7229 1.28407 4.7229 0.844648ZM5.67775 0.844648C5.67775 0.476246 5.51419 0.272075 5.27106 0.272075C5.03234 0.272075 4.86436 0.476246 4.86436 0.844648C4.86436 1.21305 5.02792 1.41722 5.27106 1.41722C5.51419 1.41722 5.67775 1.21305 5.67775 0.844648Z" fill="#263238"/>
<path d="M6.02637 0.844648C6.02637 0.405229 6.25624 0.138916 6.57452 0.138916C6.89281 0.138916 7.1271 0.40079 7.1271 0.844648C7.1271 1.28407 6.89281 1.55038 6.57452 1.55038C6.25624 1.55038 6.02637 1.28407 6.02637 0.844648ZM6.98122 0.844648C6.98122 0.476246 6.81766 0.272075 6.57452 0.272075C6.33581 0.272075 6.16783 0.476246 6.16783 0.844648C6.16783 1.21305 6.33139 1.41722 6.57452 1.41722C6.81766 1.41722 6.98122 1.21305 6.98122 0.844648Z" fill="#263238"/>
</svg>
