<svg width="35" height="28" viewBox="0 0 35 28" fill="none" xmlns="http://www.w3.org/2000/svg">
<path d="M17.251 18.5409C20.1505 18.5409 22.501 16.1936 22.501 13.298C22.501 10.4025 20.1505 8.05518 17.251 8.05518C14.3515 8.05518 12.001 10.4025 12.001 13.298C12.001 16.1936 14.3515 18.5409 17.251 18.5409Z" stroke="#050403" stroke-width="2.09944" stroke-linecap="round" stroke-linejoin="round"/>
<path d="M8.82324 23.7048C9.61325 22.1509 10.8187 20.8457 12.306 19.934C13.7933 19.0224 15.5044 18.5398 17.2495 18.5398C18.9946 18.5398 20.7057 19.0224 22.193 19.934C23.6803 20.8457 24.8857 22.1509 25.6758 23.7048" stroke="#050403" stroke-width="2.09944" stroke-linecap="round" stroke-linejoin="round"/>
<path d="M26.7007 14.3464L29.8507 17.4922L33.0007 14.3464" stroke="#050403" stroke-width="2.09944" stroke-linecap="round" stroke-linejoin="round"/>
<path d="M1.50049 14.3464L4.65049 11.2007L7.80049 14.3464" stroke="#050403" stroke-width="2.09944" stroke-linecap="round" stroke-linejoin="round"/>
<path d="M29.8496 17.4921V14.3464C29.8526 11.6278 28.9738 8.98133 27.3448 6.80317C25.7158 4.62501 23.4242 3.03231 20.813 2.26345C18.2019 1.4946 15.4116 1.59095 12.8599 2.53809C10.3081 3.48523 8.13216 5.23221 6.65771 7.51754" stroke="#050403" stroke-width="2.09944" stroke-linecap="round" stroke-linejoin="round"/>
<path d="M4.65089 11.2007V14.3464C4.64791 17.065 5.5267 19.7114 7.15569 21.8896C8.78469 24.0678 11.0763 25.6605 13.6874 26.4293C16.2986 27.1982 19.0889 27.1018 21.6406 26.1547C24.1924 25.2075 26.3683 23.4606 27.8428 21.1752" stroke="#050403" stroke-width="2.09944" stroke-linecap="round" stroke-linejoin="round"/>
</svg>
