<svg width="202" height="173" viewBox="0 0 202 173" fill="none" xmlns="http://www.w3.org/2000/svg">
<path d="M196.068 0.756592H5.93737C2.65728 0.756592 0.000488281 3.42417 0.000488281 6.7176V141.557C0.000488281 144.851 2.65728 147.518 5.93737 147.518H78.9085C78.9085 147.518 83.5501 165.548 69.161 173.004H137.393C137.393 173.004 121.147 163.794 125.325 147.518H196.068C199.344 147.518 202.005 144.851 202.005 141.557V6.7176C202 3.42417 199.344 0.756592 196.068 0.756592Z" fill="#263238"/>
<path d="M103.54 133.332C106.126 137.043 102.077 141.109 98.3815 138.512C98.2577 138.428 98.1472 138.317 98.0632 138.192C95.486 134.482 99.5265 130.421 103.222 133.013C103.341 133.101 103.456 133.212 103.54 133.332Z" fill="#455A64"/>
</svg>
