<svg width="35" height="28" viewBox="0 0 35 28" fill="none" xmlns="http://www.w3.org/2000/svg">
<path d="M17.2505 18.5409C20.15 18.5409 22.5005 16.1936 22.5005 13.298C22.5005 10.4025 20.15 8.05518 17.2505 8.05518C14.351 8.05518 12.0005 10.4025 12.0005 13.298C12.0005 16.1936 14.351 18.5409 17.2505 18.5409Z" stroke="#050403" stroke-width="2.09944" stroke-linecap="round" stroke-linejoin="round"/>
<path d="M8.82324 23.7048C9.61325 22.1509 10.8187 20.8457 12.306 19.934C13.7933 19.0224 15.5044 18.5398 17.2495 18.5398C18.9946 18.5398 20.7057 19.0224 22.193 19.934C23.6803 20.8457 24.8857 22.1509 25.6758 23.7048" stroke="#050403" stroke-width="2.09944" stroke-linecap="round" stroke-linejoin="round"/>
<path d="M26.7003 14.3464L29.8503 17.4922L33.0003 14.3464" stroke="#050403" stroke-width="2.09944" stroke-linecap="round" stroke-linejoin="round"/>
<path d="M1.50024 14.3464L4.65025 11.2007L7.80025 14.3464" stroke="#050403" stroke-width="2.09944" stroke-linecap="round" stroke-linejoin="round"/>
<path d="M29.8494 17.4921V14.3464C29.8523 11.6278 28.9735 8.98133 27.3446 6.80317C25.7156 4.62501 23.424 3.03231 20.8128 2.26345C18.2016 1.4946 15.4114 1.59095 12.8596 2.53809C10.3079 3.48523 8.13191 5.23221 6.65747 7.51754" stroke="#050403" stroke-width="2.09944" stroke-linecap="round" stroke-linejoin="round"/>
<path d="M4.65064 11.2007V14.3464C4.64767 17.065 5.52645 19.7114 7.15545 21.8896C8.78445 24.0678 11.076 25.6605 13.6872 26.4293C16.2984 27.1982 19.0886 27.1018 21.6404 26.1547C24.1921 25.2075 26.3681 23.4606 27.8425 21.1752" stroke="#050403" stroke-width="2.09944" stroke-linecap="round" stroke-linejoin="round"/>
</svg>
