<svg width="2" height="2" viewBox="0 0 2 2" fill="none" xmlns="http://www.w3.org/2000/svg">
<path d="M0.480669 0.444824V1.82966H0.33922V0.573547H0.012085V0.444824H0.480669Z" fill="#E0E0E0"/>
<path d="M1.86859 1.44364C1.86859 1.68776 1.66083 1.8431 1.3337 1.8431C1.00216 1.8431 0.803223 1.6922 0.803223 1.44364C0.803223 1.27941 0.896058 1.15957 1.06846 1.10187C0.927003 1.04417 0.851843 0.94208 0.851843 0.795607C0.851843 0.56924 1.04194 0.431641 1.3337 0.431641C1.62546 0.431641 1.81996 0.573678 1.81996 0.795607C1.81996 0.94208 1.74039 1.04417 1.59893 1.10187C1.77133 1.16401 1.86859 1.27941 1.86859 1.44364ZM1.7227 1.44364C1.7227 1.27497 1.57684 1.16845 1.3337 1.16845C1.09057 1.16845 0.944686 1.27497 0.944686 1.44364C0.944686 1.61674 1.09057 1.72327 1.3337 1.72327C1.57684 1.72327 1.7227 1.61674 1.7227 1.44364ZM1.3337 1.05304C1.55031 1.05304 1.67851 0.955391 1.67851 0.804479C1.67851 0.649129 1.54147 0.551491 1.3337 0.551491C1.12593 0.551491 0.993306 0.6447 0.993306 0.80005C0.993306 0.9554 1.11709 1.05304 1.3337 1.05304Z" fill="#E0E0E0"/>
</svg>
