<svg width="3" height="2" viewBox="0 0 3 2" fill="none" xmlns="http://www.w3.org/2000/svg">
<path d="M1.12776 0.444824V1.82966H0.986301V0.573547H0.65918V0.444824H1.12776Z" fill="#E0E0E0"/>
<path d="M2.44958 1.12821C2.44958 1.5987 2.19319 1.84281 1.81744 1.84281C1.69366 1.84281 1.57873 1.82063 1.49032 1.76736L1.54779 1.65196C1.61852 1.70078 1.71576 1.71853 1.81744 1.71853C2.11362 1.71853 2.30371 1.52767 2.30371 1.1504C2.30371 1.11933 2.3037 1.07938 2.29928 1.03943C2.22855 1.19034 2.06942 1.27912 1.87933 1.27912C1.60526 1.27912 1.41516 1.11489 1.41516 0.861891C1.41516 0.604453 1.61851 0.435791 1.88817 0.435791C2.25066 0.435791 2.44958 0.688789 2.44958 1.12821ZM2.25508 0.853018C2.25508 0.702107 2.12689 0.555628 1.8926 0.555628C1.69367 0.555628 1.55662 0.671027 1.55662 0.857448C1.55662 1.03943 1.68924 1.15484 1.90143 1.15484C2.11362 1.15484 2.25508 1.02168 2.25508 0.853018Z" fill="#E0E0E0"/>
</svg>
