<svg width="13" height="5" viewBox="0 0 13 5" fill="none" xmlns="http://www.w3.org/2000/svg">
<path d="M1.84013 1.16707H0.942749V0.740967H3.23705V1.16707H2.33966V3.45737H1.83571V1.16707H1.84013Z" fill="#263238"/>
<path d="M3.18896 2.41897C3.18896 1.79757 3.65313 1.35815 4.28528 1.35815C4.92627 1.35815 5.38601 1.79757 5.38601 2.41897C5.38601 3.04037 4.92627 3.48423 4.28528 3.48423C3.65313 3.48423 3.18896 3.04037 3.18896 2.41897ZM4.90416 2.41897C4.90416 2.02394 4.64335 1.77094 4.2897 1.77094C3.94047 1.77094 3.67965 2.02394 3.67965 2.41897C3.67965 2.81401 3.94047 3.067 4.2897 3.067C4.63893 3.067 4.90416 2.81845 4.90416 2.41897Z" fill="#263238"/>
<path d="M7.87378 0.576946V3.45758H7.40961V3.19127C7.24605 3.391 7.00734 3.48421 6.72442 3.48421C6.12763 3.48421 5.68115 3.06699 5.68115 2.41896C5.68115 1.77093 6.12763 1.35814 6.72442 1.35814C6.98965 1.35814 7.22837 1.44691 7.38751 1.63777V0.57251H7.87378V0.576946ZM7.40077 2.41896C7.40077 2.02393 7.13553 1.77092 6.78631 1.77092C6.43708 1.77092 6.17184 2.02393 6.17184 2.41896C6.17184 2.81399 6.43708 3.06699 6.78631 3.06699C7.13553 3.06699 7.40077 2.81843 7.40077 2.41896Z" fill="#263238"/>
<path d="M10.2399 2.24143V3.4576H9.78462V3.2046C9.66968 3.38214 9.44423 3.48423 9.13479 3.48423C8.66178 3.48423 8.3656 3.22236 8.3656 2.86283C8.3656 2.51662 8.59547 2.24587 9.2232 2.24587H9.75809V2.2148C9.75809 1.93073 9.59011 1.7665 9.2453 1.7665C9.01543 1.7665 8.7723 1.84195 8.61758 1.97067L8.42749 1.61559C8.64852 1.44693 8.9668 1.35815 9.30277 1.35815C9.89513 1.36259 10.2399 1.64666 10.2399 2.24143ZM9.75809 2.80956V2.56988H9.25856C8.93144 2.56988 8.84303 2.69416 8.84303 2.84507C8.84303 3.01818 8.98891 3.13358 9.23646 3.13358C9.47075 3.12915 9.6741 3.02262 9.75809 2.80956Z" fill="#263238"/>
<path d="M12.7555 1.38456L11.7874 3.6216C11.5973 4.09209 11.3365 4.23413 10.9917 4.23413C10.7883 4.23413 10.5717 4.16311 10.4391 4.04327L10.6336 3.68819C10.7264 3.77696 10.859 3.83022 10.9872 3.83022C11.1552 3.83022 11.2569 3.75032 11.3497 3.54171L11.3851 3.46181L10.4833 1.38013H10.9872L11.6371 2.91143L12.2913 1.38013H12.7555V1.38456Z" fill="#263238"/>
</svg>
