<svg width="3" height="3" viewBox="0 0 3 3" fill="none" xmlns="http://www.w3.org/2000/svg">
<path d="M2.31071 0.660148C2.33281 0.68234 2.25324 0.806616 2.09851 0.988598C2.02336 1.07737 1.93053 1.18389 1.82444 1.2993C1.76697 1.36144 1.7095 1.41914 1.65645 1.47684L1.56803 1.57005L1.52383 1.61888L1.50173 1.64107L1.48847 1.65438L1.48404 1.65883L1.47963 1.66326C1.4089 1.59224 1.6432 1.82749 1.31607 1.49904C1.2807 1.46353 1.62551 1.80973 1.47963 1.66326L1.47521 1.6677L1.47078 1.67214L1.45752 1.68546L1.43542 1.70765L1.38679 1.75203L1.29396 1.84081C1.23649 1.89407 1.17903 1.95176 1.11714 2.00947C1.0022 2.11599 0.900521 2.20921 0.807688 2.28467C0.626443 2.43558 0.50267 2.5199 0.480567 2.49771C0.458464 2.47552 0.53804 2.35124 0.692761 2.16926C0.767912 2.08049 0.860743 1.97396 0.966837 1.85856C1.02431 1.79642 1.08178 1.73872 1.13482 1.68101L1.22323 1.58781L1.26744 1.53898L1.28953 1.51679L1.3028 1.50347L1.30722 1.49904L1.31164 1.4946C1.16576 1.34812 1.51057 1.69434 1.47521 1.65883C1.14808 1.33037 1.3868 1.57005 1.31164 1.4946L1.31607 1.49016L1.32048 1.48572L1.33374 1.4724L1.35585 1.45021L1.40447 1.40583L1.4973 1.31706C1.55477 1.26379 1.61225 1.20609 1.67414 1.14839C1.78907 1.04186 1.89074 0.948653 1.98357 0.873197C2.16482 0.717847 2.28861 0.637955 2.31071 0.660148Z" fill="#E8505B"/>
</svg>
