<svg width="3" height="2" viewBox="0 0 3 2" fill="none" xmlns="http://www.w3.org/2000/svg">
<path d="M1.33273 1.70546V1.83418H0.364627V1.73209L0.939301 1.1684C1.09402 1.01305 1.12497 0.919842 1.12497 0.826632C1.12497 0.666843 1.01445 0.569187 0.802263 0.569187C0.6387 0.569187 0.51492 0.618014 0.426508 0.72454L0.324829 0.635763C0.430924 0.507044 0.603335 0.436035 0.815524 0.436035C1.09402 0.436035 1.27085 0.578068 1.27085 0.808874C1.27085 0.942031 1.23106 1.06188 1.04539 1.24386L0.576807 1.70546H1.33273Z" fill="#E0E0E0"/>
<path d="M1.50476 1.13713C1.50476 0.697709 1.73463 0.431396 2.05291 0.431396C2.3712 0.431396 2.60549 0.693271 2.60549 1.13713C2.60549 1.57655 2.3712 1.84286 2.05291 1.84286C1.73463 1.84286 1.50476 1.58099 1.50476 1.13713ZM2.45962 1.13713C2.45962 0.768727 2.29605 0.564562 2.05291 0.564562C1.8142 0.564562 1.64622 0.768727 1.64622 1.13713C1.64622 1.50553 1.8142 1.70971 2.05291 1.70971C2.29163 1.70971 2.45962 1.50997 2.45962 1.13713Z" fill="#E0E0E0"/>
</svg>
