<svg width="3" height="2" viewBox="0 0 3 2" fill="none" xmlns="http://www.w3.org/2000/svg">
<path d="M1.63034 1.70522V1.83394H0.66222V1.73185L1.23689 1.16815C1.39162 1.0128 1.42257 0.919598 1.42257 0.826388C1.42257 0.666599 1.31205 0.568943 1.09986 0.568943C0.936294 0.568943 0.812528 0.61777 0.724116 0.724296L0.622437 0.635519C0.728531 0.5068 0.900929 0.435791 1.11312 0.435791C1.39162 0.435791 1.56844 0.577824 1.56844 0.80863C1.56844 0.941787 1.52866 1.06163 1.343 1.24362L0.874415 1.70522H1.63034Z" fill="#E0E0E0"/>
<path d="M2.74911 1.70522V1.83394H1.78099V1.73185L2.35567 1.16815C2.51039 1.0128 2.54134 0.919598 2.54134 0.826388C2.54134 0.666599 2.43082 0.568943 2.21863 0.568943C2.05507 0.568943 1.9313 0.61777 1.84289 0.724296L1.74121 0.635519C1.84731 0.5068 2.0197 0.435791 2.23189 0.435791C2.51039 0.435791 2.68722 0.577824 2.68722 0.80863C2.68722 0.941787 2.64744 1.06163 2.46177 1.24362L1.99319 1.70522H2.74911Z" fill="#E0E0E0"/>
</svg>
