<svg width="3" height="2" viewBox="0 0 3 2" fill="none" xmlns="http://www.w3.org/2000/svg">
<path d="M0.970049 0.444824V1.82966H0.828586V0.573547H0.501465V0.444824H0.970049Z" fill="#E0E0E0"/>
<path d="M1.30139 1.13713C1.30139 0.697709 1.53126 0.431396 1.84954 0.431396C2.16783 0.431396 2.40212 0.693271 2.40212 1.13713C2.40212 1.57655 2.16783 1.84286 1.84954 1.84286C1.53126 1.84286 1.30139 1.58099 1.30139 1.13713ZM2.25625 1.13713C2.25625 0.768727 2.09268 0.564562 1.84954 0.564562C1.61083 0.564562 1.44285 0.768727 1.44285 1.13713C1.44285 1.50553 1.60641 1.70971 1.84954 1.70971C2.08826 1.70971 2.25625 1.50997 2.25625 1.13713Z" fill="#E0E0E0"/>
</svg>
