<svg width="2" height="2" viewBox="0 0 2 2" fill="none" xmlns="http://www.w3.org/2000/svg">
<path d="M1.29348 1.41671C1.29348 1.67415 1.09013 1.84281 0.820477 1.84281C0.453566 1.84281 0.254639 1.58981 0.254639 1.1504C0.254639 0.679906 0.511034 0.435791 0.886787 0.435791C1.01056 0.435791 1.1255 0.457976 1.21391 0.511239L1.15644 0.626647C1.08571 0.577822 0.992881 0.560071 0.886787 0.560071C0.590606 0.560071 0.400516 0.750929 0.400516 1.12821C0.400516 1.15928 0.400517 1.19923 0.404938 1.23917C0.475668 1.08826 0.634809 0.999485 0.824895 0.999485C1.09897 0.999485 1.29348 1.16371 1.29348 1.41671ZM1.15202 1.42116C1.15202 1.23917 1.0194 1.12377 0.807215 1.12377C0.595026 1.12377 0.453565 1.25248 0.453565 1.42559C0.453565 1.5765 0.581763 1.72298 0.816055 1.72298C1.01498 1.72298 1.15202 1.60314 1.15202 1.42116Z" fill="#E0E0E0"/>
</svg>
