<svg width="43" height="15" viewBox="0 0 43 15" fill="none" xmlns="http://www.w3.org/2000/svg">
<path d="M40.0782 14.3961H3.03786C1.90618 14.3961 0.986694 13.4729 0.986694 12.3367V2.63836C0.986694 1.50208 1.90618 0.578857 3.03786 0.578857H40.0782C41.2099 0.578857 42.1294 1.50208 42.1294 2.63836V12.3367C42.1294 13.4774 41.2099 14.3961 40.0782 14.3961Z" fill="#E8505B"/>
<path d="M9.81914 10.2682L8.66537 8.3063L8.2012 8.83893C8.08184 8.97652 7.89618 9.02535 7.72377 8.97209C7.55137 8.91439 7.43201 8.76347 7.41875 8.58149L7.13583 4.98624C7.12257 4.81758 7.20214 4.65779 7.34802 4.56902C7.4939 4.48025 7.67072 4.48025 7.81661 4.56902L10.8049 6.41103C10.9552 6.50424 11.0392 6.67291 11.0127 6.85045C10.9906 7.02799 10.8713 7.17002 10.6988 7.22329L10.0667 7.41859L11.4371 9.27391L9.81914 10.2682ZM8.73609 7.5473L9.97387 9.65562L10.8005 9.14963L9.34614 7.1789L10.5751 6.80162L7.58673 4.95074L7.35686 4.97293L7.57789 4.95517L7.86081 8.55042L8.73609 7.5473Z" fill="white"/>
<g opacity="0.4">
<path d="M16.336 13.3885C16.2741 13.3885 16.2211 10.681 16.2211 7.34319C16.2211 4.00538 16.2741 1.29785 16.336 1.29785C16.3979 1.29785 16.4509 4.00538 16.4509 7.34319C16.4509 10.681 16.4023 13.3885 16.336 13.3885Z" fill="white"/>
</g>
<path d="M18.627 4.73329C18.627 4.285 18.9673 3.95654 19.4271 3.95654C19.6481 3.95654 19.8515 4.032 19.9841 4.17847L19.8824 4.28056C19.7586 4.15184 19.6039 4.09858 19.4315 4.09858C19.0646 4.09858 18.7861 4.36933 18.7861 4.73329C18.7861 5.09726 19.0646 5.36801 19.4315 5.36801C19.6039 5.36801 19.7586 5.31475 19.8824 5.18603L19.9841 5.28812C19.847 5.43459 19.6481 5.51448 19.4227 5.51448C18.9629 5.51448 18.627 5.18159 18.627 4.73329Z" fill="white"/>
<path d="M20.2928 3.87671H20.4476V5.50123H20.2928V3.87671Z" fill="white"/>
<path d="M20.847 3.98767C20.847 3.92997 20.8957 3.87671 20.962 3.87671C21.0239 3.87671 21.0769 3.92554 21.0769 3.98324C21.0769 4.04538 21.0283 4.09864 20.962 4.09864C20.9001 4.09864 20.847 4.04537 20.847 3.98767ZM20.8824 4.3472H21.0371V5.49679H20.8824V4.3472Z" fill="white"/>
<path d="M21.354 4.92427C21.354 4.5825 21.6016 4.33838 21.9464 4.33838C22.1409 4.33838 22.3044 4.41384 22.3973 4.56475L22.2823 4.64464C22.2028 4.52924 22.0834 4.47598 21.9508 4.47598C21.6988 4.47598 21.5176 4.65352 21.5176 4.92427C21.5176 5.19502 21.6988 5.37257 21.9508 5.37257C22.0834 5.37257 22.2072 5.31931 22.2823 5.2039L22.3973 5.2838C22.3044 5.43027 22.1409 5.51016 21.9464 5.51016C21.6016 5.51016 21.354 5.26604 21.354 4.92427Z" fill="white"/>
<path d="M23.1058 4.92421L22.8361 5.17278V5.50123H22.6814V3.87671H22.8361V4.97748L23.5213 4.35164H23.7114L23.2207 4.82213L23.7556 5.50123H23.5655L23.1058 4.92421Z" fill="white"/>
<path d="M23.7948 5.36813L23.8655 5.24385C23.9584 5.31487 24.1131 5.37257 24.2722 5.37257C24.4888 5.37257 24.5773 5.29711 24.5773 5.18615C24.5773 4.88433 23.8346 5.12401 23.8346 4.66684C23.8346 4.48042 23.9937 4.33838 24.2899 4.33838C24.4358 4.33838 24.5994 4.37833 24.6966 4.44491L24.6303 4.56919C24.5286 4.49817 24.4093 4.47154 24.2943 4.47154C24.0866 4.47154 23.9937 4.55143 23.9937 4.6624C23.9937 4.9731 24.7364 4.73785 24.7364 5.18171C24.7364 5.38145 24.564 5.51016 24.2634 5.51016C24.0733 5.51016 23.8921 5.44802 23.7948 5.36813Z" fill="white"/>
<path d="M19.8768 7.61869V10.9698H19.258V8.13801H18.5507V7.61426H19.8768V7.61869Z" fill="white"/>
<path d="M20.536 9.29639C20.536 8.19562 21.1372 7.57422 21.9285 7.57422C22.7242 7.57422 23.3254 8.19562 23.3254 9.29639C23.3254 10.3972 22.7242 11.0186 21.9285 11.0186C21.1372 11.0186 20.536 10.3972 20.536 9.29639ZM22.7021 9.29639C22.7021 8.48856 22.3882 8.11572 21.9285 8.11572C21.4776 8.11572 21.1593 8.48856 21.1593 9.29639C21.1593 10.1042 21.4732 10.477 21.9285 10.477C22.3882 10.477 22.7021 10.1042 22.7021 9.29639Z" fill="white"/>
<path d="M23.6692 10.6099C23.6692 10.3702 23.846 10.2104 24.0582 10.2104C24.2748 10.2104 24.4472 10.3702 24.4472 10.6099C24.4472 10.8407 24.2704 11.0094 24.0582 11.0094C23.8416 11.005 23.6692 10.8363 23.6692 10.6099Z" fill="white"/>
<path d="M27.2778 9.94442C27.2778 10.5348 26.8534 11.023 25.956 11.023C25.483 11.023 25.0056 10.881 24.7006 10.6368L24.9614 10.153C25.2045 10.3528 25.567 10.4815 25.9428 10.4815C26.3848 10.4815 26.6501 10.2862 26.6501 9.97105C26.6501 9.65148 26.4467 9.4473 25.7527 9.4473H24.9481L25.1205 7.62305H27.0789V8.1468H25.6422L25.5714 8.92355H25.8897C26.8843 8.91911 27.2778 9.34965 27.2778 9.94442Z" fill="white"/>
<path d="M27.6351 9.29639C27.6351 8.19562 28.2363 7.57422 29.0276 7.57422C29.8233 7.57422 30.4245 8.19562 30.4245 9.29639C30.4245 10.3972 29.8233 11.0186 29.0276 11.0186C28.2363 11.0186 27.6351 10.3972 27.6351 9.29639ZM29.7968 9.29639C29.7968 8.48856 29.4829 8.11572 29.0232 8.11572C28.5723 8.11572 28.254 8.48856 28.254 9.29639C28.254 10.1042 28.5679 10.477 29.0232 10.477C29.4829 10.477 29.7968 10.1042 29.7968 9.29639Z" fill="white"/>
<path d="M30.8385 9.29639C30.8385 8.19562 31.4397 7.57422 32.231 7.57422C33.0267 7.57422 33.6279 8.19562 33.6279 9.29639C33.6279 10.3972 33.0267 11.0186 32.231 11.0186C31.4397 11.0186 30.8385 10.3972 30.8385 9.29639ZM33.0046 9.29639C33.0046 8.48856 32.6907 8.11572 32.231 8.11572C31.7801 8.11572 31.4618 8.48856 31.4618 9.29639C31.4618 10.1042 31.7757 10.477 32.231 10.477C32.6907 10.477 33.0046 10.1042 33.0046 9.29639Z" fill="white"/>
</svg>
