<svg width="3" height="2" viewBox="0 0 3 2" fill="none" xmlns="http://www.w3.org/2000/svg">
<path d="M1.27938 1.70497V1.8337H0.311268V1.7316L0.885943 1.16791C1.04066 1.01256 1.07161 0.919354 1.07161 0.826144C1.07161 0.666355 0.961094 0.568699 0.748905 0.568699C0.585342 0.568699 0.461562 0.617526 0.37315 0.724052L0.271484 0.635275C0.377579 0.506556 0.549977 0.435547 0.762166 0.435547C1.04066 0.435547 1.21749 0.57758 1.21749 0.808386C1.21749 0.941543 1.1777 1.06139 0.992033 1.24337L0.523449 1.70497H1.27938Z" fill="#E0E0E0"/>
<path d="M2.37184 1.43439C2.37184 1.66519 2.20385 1.84273 1.8723 1.84273C1.67338 1.84273 1.48329 1.77171 1.3772 1.66519L1.44792 1.55422C1.53633 1.64743 1.69547 1.71402 1.87672 1.71402C2.10659 1.71402 2.23037 1.60749 2.23037 1.43439C2.23037 1.27016 2.11544 1.1592 1.85904 1.1592H1.76179V1.05266L2.14195 0.573303H1.43465V0.44458H2.31878V0.546672L1.92977 1.03935C2.22153 1.05266 2.37184 1.21246 2.37184 1.43439Z" fill="#E0E0E0"/>
</svg>
