<svg width="3" height="2" viewBox="0 0 3 2" fill="none" xmlns="http://www.w3.org/2000/svg">
<path d="M0.973692 0.44458V1.82941H0.845497V0.573303H0.549316V0.44458H0.973692Z" fill="#E0E0E0"/>
<path d="M2.10544 1.43439C2.10544 1.66519 1.95514 1.84273 1.65012 1.84273C1.46887 1.84273 1.29647 1.77171 1.19922 1.66519L1.26111 1.55422C1.34068 1.64743 1.48655 1.71402 1.65012 1.71402C1.85789 1.71402 1.97283 1.60749 1.97283 1.43439C1.97283 1.27016 1.86673 1.1592 1.63244 1.1592H1.54403V1.05266L1.89325 0.573303H1.25226V0.44458H2.06124V0.546672L1.70759 1.03935C1.9684 1.05266 2.10544 1.21246 2.10544 1.43439Z" fill="#E0E0E0"/>
</svg>
