<svg width="35" height="28" viewBox="0 0 35 28" fill="none" xmlns="http://www.w3.org/2000/svg">
<path d="M17.3543 17.9606C20.253 17.9606 22.6029 15.6133 22.6029 12.7177C22.6029 9.82216 20.253 7.47485 17.3543 7.47485C14.4556 7.47485 12.1057 9.82216 12.1057 12.7177C12.1057 15.6133 14.4556 17.9606 17.3543 17.9606Z" stroke="white" stroke-width="2.09944" stroke-linecap="round" stroke-linejoin="round"/>
<path d="M8.9292 23.1243C9.719 21.5703 10.9241 20.2651 12.411 19.3535C13.898 18.4418 15.6085 17.9592 17.3532 17.9592C19.0979 17.9592 20.8085 18.4418 22.2954 19.3535C23.7823 20.2651 24.9874 21.5703 25.7772 23.1243" stroke="white" stroke-width="2.09944" stroke-linecap="round" stroke-linejoin="round"/>
<path d="M26.8015 13.7661L29.9507 16.9118L33.0998 13.7661" stroke="white" stroke-width="2.09944" stroke-linecap="round" stroke-linejoin="round"/>
<path d="M1.60815 13.7661L4.75732 10.6204L7.90648 13.7661" stroke="white" stroke-width="2.09944" stroke-linecap="round" stroke-linejoin="round"/>
<path d="M29.9496 16.9118V13.7661C29.9526 11.0475 29.074 8.40101 27.4455 6.22285C25.8169 4.04469 23.5259 2.45198 20.9155 1.68313C18.305 0.914274 15.5155 1.01063 12.9644 1.95777C10.4133 2.90491 8.23797 4.65189 6.76392 6.93722" stroke="white" stroke-width="2.09944" stroke-linecap="round" stroke-linejoin="round"/>
<path d="M4.75758 10.6204V13.7661C4.7546 16.4847 5.63315 19.1311 7.26171 21.3093C8.89028 23.4874 11.1813 25.0801 13.7917 25.849C16.4022 26.6179 19.1917 26.5215 21.7428 25.5744C24.2939 24.6272 26.4692 22.8802 27.9433 20.5949" stroke="white" stroke-width="2.09944" stroke-linecap="round" stroke-linejoin="round"/>
</svg>
