<svg width="2" height="2" viewBox="0 0 2 2" fill="none" xmlns="http://www.w3.org/2000/svg">
<path d="M1.47516 1.44339C1.47516 1.68751 1.26739 1.84286 0.940262 1.84286C0.608716 1.84286 0.40979 1.69195 0.40979 1.44339C0.40979 1.27916 0.502626 1.15933 0.67503 1.10163C0.53357 1.04392 0.458417 0.941836 0.458417 0.795363C0.458417 0.568996 0.648502 0.431396 0.940262 0.431396C1.23202 0.431396 1.42653 0.573434 1.42653 0.795363C1.42653 0.941836 1.34696 1.04392 1.2055 1.10163C1.37791 1.16377 1.47516 1.27916 1.47516 1.44339ZM1.32928 1.44339C1.32928 1.27473 1.1834 1.1682 0.940262 1.1682C0.697129 1.1682 0.551253 1.27473 0.551253 1.44339C0.551253 1.6165 0.697129 1.72302 0.940262 1.72302C1.1834 1.72302 1.32928 1.6165 1.32928 1.44339ZM0.940262 1.05279C1.15687 1.05279 1.28065 0.955147 1.28065 0.804235C1.28065 0.648885 1.14361 0.551247 0.940262 0.551247C0.732494 0.551247 0.599873 0.644456 0.599873 0.799806C0.599873 0.955156 0.723652 1.05279 0.940262 1.05279Z" fill="#E0E0E0"/>
</svg>
