<svg width="42" height="15" viewBox="0 0 42 15" fill="none" xmlns="http://www.w3.org/2000/svg">
<path d="M40.5318 14.3957H1.84697C1.17062 14.3957 0.618042 13.8453 0.618042 13.1618V1.8079C0.618042 1.1288 1.1662 0.573975 1.84697 0.573975H40.5318C41.2081 0.573975 41.7607 1.12436 41.7607 1.8079V13.1618C41.7607 13.8453 41.2081 14.3957 40.5318 14.3957Z" fill="#E8505B"/>
<g opacity="0.3">
<path d="M40.2489 14.3959H2.12547C1.28998 14.3959 0.618042 13.7168 0.618042 12.8823V2.09656C0.618042 1.25767 1.2944 0.583008 2.12547 0.583008H40.2489C41.0843 0.583008 41.7607 1.26211 41.7607 2.09656V12.8823C41.7607 13.7168 41.0843 14.3959 40.2489 14.3959Z" fill="white"/>
</g>
<path d="M19.583 4.49323C19.583 4.81725 19.3487 5.01699 18.9597 5.01699H18.5486V5.50079H18.385V3.96948H18.9553C19.3487 3.96948 19.583 4.16478 19.583 4.49323ZM19.4239 4.49323C19.4239 4.24911 19.2603 4.10708 18.9597 4.10708H18.553V4.87495H18.9597C19.2603 4.87495 19.4239 4.73292 19.4239 4.49323Z" fill="white"/>
<path d="M20.8919 4.97236H19.9327C19.9504 5.21205 20.1316 5.37184 20.3836 5.37184C20.525 5.37184 20.6488 5.32301 20.7328 5.22093L20.8212 5.32301C20.7195 5.44729 20.5604 5.50943 20.3792 5.50943C20.0211 5.50943 19.778 5.26531 19.778 4.92354C19.778 4.58177 20.0167 4.33765 20.3394 4.33765C20.6621 4.33765 20.8964 4.57733 20.8964 4.92354C20.8964 4.93685 20.8919 4.95461 20.8919 4.97236ZM19.9327 4.85696H20.7461C20.7284 4.63059 20.5648 4.47524 20.3394 4.47524C20.1183 4.47524 19.9548 4.63059 19.9327 4.85696Z" fill="white"/>
<path d="M21.7884 4.33789V4.4888C21.7752 4.4888 21.7619 4.4888 21.7531 4.4888C21.5143 4.4888 21.3685 4.63972 21.3685 4.91491V5.5008H21.2137V4.35121H21.3596V4.57757C21.4303 4.42222 21.5762 4.33789 21.7884 4.33789Z" fill="white"/>
<path d="M22.261 4.21364V4.35123H22.6146V4.48439H22.2654V5.50527H22.1107V4.48439H21.9073V4.35123H22.1107V4.2092C22.1107 4.00503 22.2345 3.86743 22.4555 3.86743C22.5395 3.86743 22.6279 3.88962 22.6854 3.93845L22.6323 4.05385C22.5881 4.01834 22.5262 3.99615 22.4643 3.99615C22.3317 3.99615 22.261 4.07161 22.261 4.21364Z" fill="white"/>
<path d="M22.6904 4.92378C22.6904 4.58201 22.938 4.33789 23.2739 4.33789C23.6099 4.33789 23.8575 4.58201 23.8575 4.92378C23.8575 5.26555 23.6099 5.50967 23.2739 5.50967C22.938 5.50967 22.6904 5.26555 22.6904 4.92378ZM23.6983 4.92378C23.6983 4.65303 23.5171 4.47549 23.2739 4.47549C23.0308 4.47549 22.8451 4.65303 22.8451 4.92378C22.8451 5.19454 23.0264 5.37208 23.2739 5.37208C23.5171 5.37208 23.6983 5.19454 23.6983 4.92378Z" fill="white"/>
<path d="M24.7501 4.33789V4.4888C24.7368 4.4888 24.7236 4.4888 24.7147 4.4888C24.476 4.4888 24.3301 4.63972 24.3301 4.91491V5.5008H24.1754V4.35121H24.3257V4.57757C24.392 4.42222 24.5379 4.33789 24.7501 4.33789Z" fill="white"/>
<path d="M26.9217 4.83057V5.49636H26.767V4.84389C26.767 4.59977 26.6432 4.47549 26.4398 4.47549C26.2055 4.47549 26.0552 4.63084 26.0552 4.89271V5.49636H25.9005V4.84389C25.9005 4.59977 25.7767 4.47549 25.569 4.47549C25.3347 4.47549 25.1844 4.63084 25.1844 4.89271V5.49636H25.0297V4.34677H25.1755V4.55538C25.2551 4.41779 25.4054 4.33789 25.5955 4.33789C25.7856 4.33789 25.9315 4.41779 26.0022 4.58201C26.0862 4.4311 26.2498 4.33789 26.4531 4.33789C26.7404 4.33789 26.9217 4.50212 26.9217 4.83057Z" fill="white"/>
<path d="M28.2112 4.78598V5.50059H28.0654V5.32305C27.9946 5.44289 27.862 5.51391 27.6719 5.51391C27.4111 5.51391 27.252 5.37631 27.252 5.18101C27.252 5.00347 27.3669 4.857 27.694 4.857H28.0565V4.78598C28.0565 4.59068 27.946 4.47972 27.7338 4.47972C27.5879 4.47972 27.4465 4.53298 27.3536 4.61732L27.2829 4.50191C27.3978 4.40426 27.5702 4.34656 27.7471 4.34656C28.0432 4.33768 28.2112 4.4886 28.2112 4.78598ZM28.0565 5.15438V4.96796H27.6984C27.4774 4.96796 27.4067 5.05673 27.4067 5.17214C27.4067 5.30529 27.5128 5.38963 27.6984 5.38963C27.8664 5.38963 27.9946 5.30529 28.0565 5.15438Z" fill="white"/>
<path d="M29.6885 4.83057V5.49636H29.5338V4.84389C29.5338 4.59977 29.4056 4.47549 29.189 4.47549C28.9414 4.47549 28.7867 4.63084 28.7867 4.89271V5.49636H28.632V4.34677H28.7778V4.55982C28.8618 4.41779 29.0165 4.33789 29.2155 4.33789C29.494 4.33789 29.6885 4.50212 29.6885 4.83057Z" fill="white"/>
<path d="M29.9988 4.92354C29.9988 4.58177 30.2463 4.33765 30.5911 4.33765C30.7856 4.33765 30.9492 4.4131 31.042 4.56401L30.9271 4.64391C30.8475 4.52851 30.7282 4.47524 30.5956 4.47524C30.3436 4.47524 30.1623 4.65279 30.1623 4.92354C30.1623 5.19429 30.3436 5.37184 30.5956 5.37184C30.7282 5.37184 30.852 5.31857 30.9271 5.20317L31.042 5.28307C30.9492 5.42954 30.7856 5.50943 30.5911 5.50943C30.2463 5.50943 29.9988 5.26531 29.9988 4.92354Z" fill="white"/>
<path d="M32.319 4.97236H31.3597C31.3774 5.21205 31.5586 5.37184 31.8106 5.37184C31.952 5.37184 32.0758 5.32301 32.1598 5.22093L32.2482 5.32301C32.1465 5.44729 31.9874 5.50943 31.8062 5.50943C31.4481 5.50943 31.205 5.26531 31.205 4.92354C31.205 4.58177 31.4437 4.33765 31.7664 4.33765C32.0891 4.33765 32.3234 4.57733 32.3234 4.92354C32.3234 4.93685 32.319 4.95461 32.319 4.97236ZM31.3597 4.85696H32.1731C32.1554 4.63059 31.9918 4.47524 31.7664 4.47524C31.5453 4.47524 31.3818 4.63059 31.3597 4.85696Z" fill="white"/>
<path d="M21.0589 10.0103C21.0589 10.6317 20.5196 11.0223 19.6885 11.0223C18.8575 11.0223 18.3314 10.6361 18.3314 10.0103C18.3314 9.64186 18.5215 9.36667 18.8663 9.21132C18.6011 9.06485 18.4508 8.82516 18.4508 8.50559C18.4508 7.93301 18.9503 7.57349 19.6885 7.57349C20.4312 7.57349 20.9396 7.93301 20.9396 8.50559C20.9396 8.82073 20.7849 9.06041 20.5152 9.21132C20.8644 9.36667 21.0589 9.64186 21.0589 10.0103ZM20.4356 9.98807C20.4356 9.65962 20.1483 9.45101 19.693 9.45101C19.2332 9.45101 18.9591 9.65518 18.9591 9.98807C18.9591 10.3298 19.2376 10.5296 19.693 10.5296C20.1483 10.5296 20.4356 10.3298 20.4356 9.98807ZM19.0608 8.53222C19.0608 8.82072 19.2995 9.00271 19.6885 9.00271C20.0864 9.00271 20.3295 8.82072 20.3295 8.53222C20.3295 8.23039 20.0731 8.05729 19.6885 8.05729C19.304 8.05729 19.0608 8.23039 19.0608 8.53222Z" fill="white"/>
<path d="M21.4877 10.6094C21.4877 10.3698 21.6645 10.21 21.8767 10.21C22.0933 10.21 22.2657 10.3698 22.2657 10.6094C22.2657 10.8402 22.0889 11.0089 21.8767 11.0089C21.6645 11.0045 21.4877 10.8358 21.4877 10.6094Z" fill="white"/>
<path d="M25.0942 9.94369C25.0942 10.534 24.6698 11.0223 23.7724 11.0223C23.2994 11.0223 22.822 10.8802 22.517 10.6361L22.7778 10.1523C23.0209 10.352 23.3834 10.4808 23.7592 10.4808C24.2012 10.4808 24.4665 10.2855 24.4665 9.97032C24.4665 9.65074 24.2631 9.44657 23.5691 9.44657H22.7645L22.9369 7.62231H24.8953V8.14607H23.4586L23.3878 8.92282H23.7061C24.7008 8.91838 25.0942 9.34892 25.0942 9.94369Z" fill="white"/>
<path d="M25.4529 9.29565C25.4529 8.19489 26.0541 7.57349 26.8454 7.57349C27.6411 7.57349 28.2423 8.19489 28.2423 9.29565C28.2423 10.3964 27.6411 11.0178 26.8454 11.0178C26.0541 11.0178 25.4529 10.3964 25.4529 9.29565ZM27.619 9.29565C27.619 8.48783 27.3051 8.11499 26.8454 8.11499C26.39 8.11499 26.0762 8.48783 26.0762 9.29565C26.0762 10.1035 26.39 10.4763 26.8454 10.4763C27.3007 10.4763 27.619 10.1035 27.619 9.29565Z" fill="white"/>
<path d="M28.658 9.29565C28.658 8.19489 29.2592 7.57349 30.0505 7.57349C30.8462 7.57349 31.4474 8.19489 31.4474 9.29565C31.4474 10.3964 30.8462 11.0178 30.0505 11.0178C29.2592 11.0178 28.658 10.3964 28.658 9.29565ZM30.8241 9.29565C30.8241 8.48783 30.5102 8.11499 30.0505 8.11499C29.5951 8.11499 29.2813 8.48783 29.2813 9.29565C29.2813 10.1035 29.5951 10.4763 30.0505 10.4763C30.5102 10.4763 30.8241 10.1035 30.8241 9.29565Z" fill="white"/>
<path d="M7.24029 10.3256C7.13861 10.3256 7.03694 10.2945 6.94852 10.2368C6.78054 10.1259 6.69654 9.93057 6.72307 9.73083L6.93968 8.15069C6.9441 8.12406 6.93526 8.09743 6.91316 8.07968L5.73727 7.00554C5.58697 6.86795 5.5295 6.66377 5.58697 6.47291C5.64444 6.27762 5.79916 6.13558 5.99809 6.10007L7.56299 5.816C7.58951 5.81157 7.61161 5.79381 7.62488 5.76718L8.27913 4.31133C8.36312 4.12934 8.53552 4.0095 8.73887 4.00063C8.9378 3.99619 9.12347 4.09827 9.2163 4.27582L9.9678 5.68284C9.98107 5.70504 10.0032 5.72279 10.0297 5.72723L11.6123 5.90034C11.8112 5.92253 11.9792 6.05569 12.0455 6.24211C12.1162 6.43297 12.072 6.64158 11.9306 6.78361L10.8298 7.93764C10.8121 7.9554 10.8033 7.98647 10.8077 8.00866L11.1304 9.57104C11.1702 9.76634 11.0995 9.96607 10.9403 10.0904C10.7812 10.2146 10.569 10.2368 10.3922 10.1481L8.9599 9.45563C8.93338 9.44232 8.90686 9.44676 8.88475 9.46008L7.50552 10.2501C7.41711 10.299 7.3287 10.3256 7.24029 10.3256ZM8.74771 4.44005C8.72561 4.44005 8.69024 4.44892 8.67256 4.48887L8.01831 5.94472C7.94758 6.10451 7.8017 6.21548 7.63372 6.24655L6.06882 6.53061C6.02461 6.53949 6.01135 6.57056 6.00693 6.58831C6.00251 6.60607 5.99809 6.64158 6.02903 6.67265L7.20492 7.74678C7.33312 7.86219 7.395 8.03529 7.3729 8.2084L7.15629 9.78853C7.15187 9.83291 7.17398 9.85511 7.19166 9.86843C7.20934 9.8773 7.24028 9.89506 7.27564 9.87286L8.65488 9.0828C8.80518 8.99846 8.98642 8.98959 9.14114 9.06504L10.5734 9.75746C10.6132 9.77522 10.6442 9.7619 10.6574 9.74858C10.6707 9.73527 10.6972 9.70863 10.6884 9.66868L10.3657 8.10631C10.3303 7.93764 10.3789 7.7601 10.4983 7.63582L11.599 6.48179C11.63 6.45072 11.6211 6.41521 11.6167 6.39746C11.6123 6.3797 11.5946 6.34863 11.5504 6.3442L9.9678 6.17109C9.7954 6.15334 9.6451 6.05125 9.56553 5.8959L8.81402 4.48887C8.80076 4.44892 8.76539 4.44005 8.74771 4.44005Z" fill="white"/>
</svg>
