<svg width="61" height="60" viewBox="0 0 61 60" fill="none" xmlns="http://www.w3.org/2000/svg">
<circle cx="30.6943" cy="30.1316" r="29.3217" fill="white" stroke="#DADADA" stroke-width="0.962418"/>
<path d="M30.8524 42.255C30.6908 42.2566 30.5316 42.2158 30.3907 42.1366C29.8816 41.8525 18.0662 35.1397 18.0662 26.6274C18.0662 25.1365 18.5353 23.6834 19.407 22.4739C20.2787 21.2644 21.5089 20.3599 22.9233 19.8885C24.3377 19.417 25.8646 19.4025 27.2876 19.847C28.7107 20.2916 29.9578 21.1726 30.8524 22.3653C31.7469 21.1726 32.9941 20.2916 34.4171 19.847C35.8402 19.4025 37.3671 19.417 38.7815 19.8885C40.1958 20.3599 41.426 21.2644 42.2978 22.4739C43.1695 23.6834 43.6386 25.1365 43.6386 26.6274C43.6386 30.2501 41.5431 33.9676 37.4112 37.6851C35.535 39.3718 33.4921 40.8633 31.3141 42.1366C31.1732 42.2158 31.014 42.2566 30.8524 42.255ZM25.1696 21.4182C23.7881 21.4182 22.4631 21.967 21.4862 22.9439C20.5092 23.9208 19.9604 25.2458 19.9604 26.6274C19.9604 33.1626 28.7213 38.9045 30.8524 40.2068C32.9834 38.9045 41.7444 33.1626 41.7444 26.6274C41.7454 25.4231 41.3293 24.2557 40.5667 23.3237C39.804 22.3917 38.742 21.7528 37.5614 21.5155C36.3808 21.2783 35.1544 21.4574 34.0909 22.0225C33.0275 22.5875 32.1927 23.5035 31.7285 24.6147C31.6571 24.7885 31.5357 24.937 31.3797 25.0416C31.2237 25.1462 31.0402 25.202 30.8524 25.202C30.6646 25.202 30.481 25.1462 30.325 25.0416C30.169 24.937 30.0476 24.7885 29.9763 24.6147C29.5821 23.6656 28.9147 22.8549 28.0589 22.2858C27.203 21.7166 26.1974 21.4147 25.1696 21.4182Z" fill="#989898"/>
</svg>
