<svg width="2" height="2" viewBox="0 0 2 2" fill="none" xmlns="http://www.w3.org/2000/svg">
<path d="M1.53039 1.12796C1.53039 1.59845 1.274 1.84257 0.898249 1.84257C0.774472 1.84257 0.659534 1.82038 0.571121 1.76712L0.628591 1.65171C0.699321 1.70054 0.792154 1.71829 0.898249 1.71829C1.19443 1.71829 1.38451 1.52743 1.38451 1.15015C1.38451 1.11908 1.38452 1.07913 1.38009 1.03919C1.30936 1.1901 1.15022 1.27887 0.960138 1.27887C0.686059 1.27887 0.495972 1.11465 0.495972 0.861646C0.495972 0.604209 0.699319 0.435547 0.964556 0.435547C1.33147 0.435547 1.53039 0.688545 1.53039 1.12796ZM1.33589 0.852774C1.33589 0.701863 1.20769 0.555384 0.973399 0.555384C0.774471 0.555384 0.637435 0.670783 0.637435 0.857204C0.637435 1.03919 0.770053 1.15459 0.982242 1.15459C1.19443 1.15459 1.33589 1.02144 1.33589 0.852774Z" fill="#E0E0E0"/>
</svg>
