<svg width="42" height="15" viewBox="0 0 42 15" fill="none" xmlns="http://www.w3.org/2000/svg">
<path d="M39.7819 14.3957H1.85301C0.964463 14.3957 0.243896 13.6722 0.243896 12.7801V2.18962C0.243896 1.29746 0.964463 0.573975 1.85301 0.573975H39.7819C40.6704 0.573975 41.391 1.29746 41.391 2.18962V12.7801C41.391 13.6722 40.6704 14.3957 39.7819 14.3957Z" fill="#455A64"/>
<g opacity="0.4">
<path d="M15.5975 13.3888C15.5356 13.3888 15.4825 10.6812 15.4825 7.34344C15.4825 4.00563 15.5356 1.2981 15.5975 1.2981C15.6594 1.2981 15.7124 4.00563 15.7124 7.34344C15.7124 10.6812 15.6638 13.3888 15.5975 13.3888Z" fill="white"/>
</g>
<path d="M18.0217 3.96997H18.645C19.1313 3.96997 19.4629 4.28511 19.4629 4.73785C19.4629 5.19058 19.1357 5.50572 18.645 5.50572H18.0217V3.96997ZM18.6362 5.35925C19.0429 5.35925 19.3037 5.10181 19.3037 4.73341C19.3037 4.365 19.0429 4.10757 18.6362 4.10757H18.1853V5.35925H18.6362Z" fill="white"/>
<path d="M19.6749 4.92427C19.6749 4.5825 19.9225 4.33838 20.2585 4.33838C20.5944 4.33838 20.842 4.5825 20.842 4.92427C20.842 5.26604 20.5944 5.51016 20.2585 5.51016C19.9225 5.51016 19.6749 5.26604 19.6749 4.92427ZM20.6828 4.92427C20.6828 4.65352 20.5016 4.47598 20.2585 4.47598C20.0153 4.47598 19.8297 4.65352 19.8297 4.92427C19.8297 5.19502 20.0109 5.37257 20.2585 5.37257C20.5016 5.37257 20.6828 5.19502 20.6828 4.92427Z" fill="white"/>
<path d="M22.8099 4.34741L22.3767 5.497H22.2308L21.8684 4.55603L21.5059 5.497H21.36L20.9268 4.34741H21.0771L21.4351 5.3239L21.802 4.34741H21.9347L22.3016 5.3239L22.6641 4.34741H22.8099Z" fill="white"/>
<path d="M24.095 4.83106V5.49685H23.9403V4.84438C23.9403 4.60025 23.8121 4.47598 23.5955 4.47598C23.3479 4.47598 23.1932 4.63132 23.1932 4.8932V5.49685H23.0385V4.34726H23.1843V4.56031C23.2683 4.41827 23.423 4.33838 23.622 4.33838C23.9049 4.33838 24.095 4.50261 24.095 4.83106Z" fill="white"/>
<path d="M24.5201 3.87671H24.6749V5.50123H24.5201V3.87671Z" fill="white"/>
<path d="M24.9889 4.92451C24.9889 4.58274 25.2364 4.33862 25.5724 4.33862C25.9084 4.33862 26.1559 4.58274 26.1559 4.92451C26.1559 5.26629 25.9084 5.51041 25.5724 5.51041C25.2364 5.51041 24.9889 5.26629 24.9889 4.92451ZM26.0012 4.92451C26.0012 4.65376 25.82 4.47622 25.5768 4.47622C25.3337 4.47622 25.148 4.65376 25.148 4.92451C25.148 5.19527 25.3293 5.37281 25.5768 5.37281C25.82 5.37281 26.0012 5.19527 26.0012 4.92451Z" fill="white"/>
<path d="M27.3325 4.78647V5.50108H27.1822V5.32354C27.1114 5.44338 26.9788 5.51439 26.7887 5.51439C26.5279 5.51439 26.3688 5.3768 26.3688 5.1815C26.3688 5.00396 26.4837 4.85748 26.8108 4.85748H27.1733V4.78647C27.1733 4.59117 27.0628 4.48021 26.8506 4.48021C26.7047 4.48021 26.5633 4.53347 26.4705 4.6178L26.3997 4.5024C26.5147 4.40475 26.6871 4.34705 26.8639 4.34705C27.1645 4.33817 27.3325 4.48908 27.3325 4.78647ZM27.1778 5.15487V4.96845H26.8197C26.5987 4.96845 26.5235 5.05722 26.5235 5.17263C26.5235 5.30578 26.6296 5.39011 26.8153 5.39011C26.9877 5.39011 27.1159 5.30578 27.1778 5.15487Z" fill="white"/>
<path d="M28.8031 3.87671V5.50123H28.6572V5.27486C28.5644 5.43021 28.4052 5.51454 28.2152 5.51454C27.888 5.51454 27.6449 5.27486 27.6449 4.92865C27.6449 4.58244 27.888 4.34276 28.2152 4.34276C28.3964 4.34276 28.5555 4.42266 28.6528 4.56913V3.87671H28.8031ZM28.6528 4.92421C28.6528 4.65346 28.4716 4.47592 28.2284 4.47592C27.9853 4.47592 27.7996 4.65346 27.7996 4.92421C27.7996 5.19497 27.9809 5.37251 28.2284 5.37251C28.4671 5.37251 28.6528 5.19497 28.6528 4.92421Z" fill="white"/>
<path d="M20.6511 9.93062C20.6511 10.5964 20.1118 11.0181 19.431 11.0181C18.5204 11.0181 17.9855 10.4277 17.9855 9.3536C17.9855 8.20401 18.653 7.57373 19.6211 7.57373C19.9527 7.57373 20.2754 7.64475 20.5008 7.79122L20.2709 8.26171C20.0897 8.14187 19.8687 8.09748 19.6344 8.09748C19.0066 8.09748 18.6088 8.48808 18.6088 9.25152V9.25595C18.8077 9.02071 19.1304 8.90531 19.5017 8.90531C20.156 8.90087 20.6511 9.30478 20.6511 9.93062ZM20.0499 9.96168C20.0499 9.61104 19.7891 9.39355 19.3824 9.39355C18.9801 9.39355 18.706 9.63767 18.706 9.96613C18.706 10.2813 18.9536 10.5298 19.3957 10.5298C19.7802 10.5298 20.0499 10.3123 20.0499 9.96168Z" fill="white"/>
<path d="M21.0007 10.6097C21.0007 10.37 21.1776 10.2102 21.3897 10.2102C21.6064 10.2102 21.7788 10.37 21.7788 10.6097C21.7788 10.8405 21.6019 11.0092 21.3897 11.0092C21.1776 11.0047 21.0007 10.836 21.0007 10.6097Z" fill="white"/>
<path d="M24.6086 9.94394C24.6086 10.5343 24.1842 11.0225 23.2868 11.0225C22.8138 11.0225 22.3364 10.8805 22.0314 10.6364L22.2922 10.1525C22.5353 10.3523 22.8978 10.481 23.2736 10.481C23.7156 10.481 23.9809 10.2857 23.9809 9.97057C23.9809 9.65099 23.7775 9.44681 23.0835 9.44681H22.2789L22.4513 7.62256H24.4097V8.14631H22.973L22.9022 8.92306H23.2205C24.2152 8.91862 24.6086 9.34917 24.6086 9.94394Z" fill="white"/>
<path d="M24.9659 9.2959C24.9659 8.19513 25.5671 7.57373 26.3584 7.57373C27.1541 7.57373 27.7553 8.19513 27.7553 9.2959C27.7553 10.3967 27.1541 11.0181 26.3584 11.0181C25.5671 11.0181 24.9659 10.3967 24.9659 9.2959ZM27.132 9.2959C27.132 8.48808 26.8182 8.11523 26.3584 8.11523C25.9031 8.11523 25.5893 8.48808 25.5893 9.2959C25.5893 10.1037 25.9031 10.4766 26.3584 10.4766C26.8138 10.4766 27.132 10.1037 27.132 9.2959Z" fill="white"/>
<path d="M28.1702 9.2959C28.1702 8.19513 28.7714 7.57373 29.5627 7.57373C30.3584 7.57373 30.9596 8.19513 30.9596 9.2959C30.9596 10.3967 30.3584 11.0181 29.5627 11.0181C28.7714 11.0181 28.1702 10.3967 28.1702 9.2959ZM30.3363 9.2959C30.3363 8.48808 30.0224 8.11523 29.5627 8.11523C29.1073 8.11523 28.7935 8.48808 28.7935 9.2959C28.7935 10.1037 29.1073 10.4766 29.5627 10.4766C30.0224 10.4766 30.3363 10.1037 30.3363 9.2959Z" fill="white"/>
<path d="M8.45866 11.1956C6.72136 11.1956 5.30676 9.77528 5.30676 8.03092C5.30676 6.28656 6.72136 4.86621 8.45866 4.86621C10.196 4.86621 11.6106 6.28656 11.6106 8.03092C11.6106 9.77528 10.196 11.1956 8.45866 11.1956ZM8.45866 5.31007C6.9645 5.31007 5.74882 6.53068 5.74882 8.03092C5.74882 9.53116 6.9645 10.7518 8.45866 10.7518C9.95283 10.7518 11.1685 9.53116 11.1685 8.03092C11.1685 6.53068 9.95283 5.31007 8.45866 5.31007Z" fill="white"/>
<path d="M8.44136 9.96197C8.37505 9.96197 8.31316 9.93091 8.27337 9.88208L6.93835 8.25756C6.85878 8.16435 6.87203 8.02232 6.96928 7.94686C7.06212 7.86697 7.20358 7.88028 7.27873 7.97793L8.43252 9.38052L9.48904 7.90247C9.55977 7.80039 9.69681 7.77819 9.79849 7.85365C9.89574 7.92467 9.92226 8.06226 9.85153 8.16435L8.63144 9.8732C8.59165 9.93091 8.52977 9.96198 8.45904 9.96642C8.4502 9.96198 8.44578 9.96197 8.44136 9.96197Z" fill="white"/>
<path d="M8.42416 9.89987C8.30038 9.89987 8.20312 9.80222 8.20312 9.67794V6.55762C8.20312 6.43334 8.30038 6.33569 8.42416 6.33569C8.54793 6.33569 8.64519 6.43334 8.64519 6.55762V9.67794C8.64519 9.80222 8.54793 9.89987 8.42416 9.89987Z" fill="white"/>
</svg>
