<svg width="61" height="61" viewBox="0 0 61 61" fill="none" xmlns="http://www.w3.org/2000/svg">
<circle cx="30.3274" cy="30.2269" r="29.3667" fill="white" stroke="#DADADA" stroke-width="0.963895"/>
<path d="M30.4859 42.3687C30.324 42.3704 30.1646 42.3295 30.0235 42.2502C29.5136 41.9656 17.6801 35.2425 17.6801 26.7171C17.6801 25.224 18.1499 23.7686 19.0229 22.5573C19.896 21.346 21.1281 20.4401 22.5447 19.9679C23.9612 19.4957 25.4904 19.4812 26.9157 19.9264C28.3409 20.3716 29.59 21.254 30.4859 22.4485C31.3818 21.254 32.6309 20.3716 34.0561 19.9264C35.4814 19.4812 37.0106 19.4957 38.4271 19.9679C39.8437 20.4401 41.0758 21.346 41.9489 22.5573C42.8219 23.7686 43.2917 25.224 43.2917 26.7171C43.2917 30.3455 41.193 34.0686 37.0548 37.7918C35.1757 39.4811 33.1297 40.9749 30.9483 42.2502C30.8072 42.3295 30.6478 42.3704 30.4859 42.3687ZM24.7944 21.4999C23.4107 21.4999 22.0837 22.0496 21.1053 23.028C20.1269 24.0064 19.5772 25.3335 19.5772 26.7171C19.5772 33.2624 28.3516 39.0131 30.4859 40.3174C32.6202 39.0131 41.3946 33.2624 41.3946 26.7171C41.3957 25.5111 40.9789 24.3418 40.2151 23.4084C39.4513 22.475 38.3877 21.835 37.2052 21.5974C36.0228 21.3598 34.7945 21.5392 33.7294 22.1052C32.6643 22.6711 31.8282 23.5885 31.3633 24.7014C31.2919 24.8754 31.1703 25.0242 31.0141 25.1289C30.8578 25.2336 30.674 25.2896 30.4859 25.2896C30.2978 25.2896 30.114 25.2336 29.9577 25.1289C29.8015 25.0242 29.6799 24.8754 29.6085 24.7014C29.2136 23.7508 28.5452 22.9389 27.6881 22.3689C26.831 21.7989 25.8238 21.4964 24.7944 21.4999Z" fill="#989898"/>
</svg>
