<svg width="29" height="28" viewBox="0 0 29 28" fill="none" xmlns="http://www.w3.org/2000/svg">
<path fill-rule="evenodd" clip-rule="evenodd" d="M10.019 8.19599C10.019 6.98952 10.4982 5.83246 11.3514 4.97935C12.2045 4.12624 13.3615 3.64697 14.568 3.64697C15.7745 3.64697 16.9315 4.12624 17.7846 4.97935C18.6377 5.83246 19.117 6.98952 19.117 8.19599C19.117 9.40247 18.6377 10.5595 17.7846 11.4126C16.9315 12.2657 15.7745 12.745 14.568 12.745C13.3615 12.745 12.2045 12.2657 11.3514 11.4126C10.4982 10.5595 10.019 9.40247 10.019 8.19599ZM10.019 15.0195C8.51088 15.0195 7.06456 15.6186 5.99817 16.685C4.93179 17.7514 4.3327 19.1977 4.3327 20.7058C4.3327 21.6107 4.69216 22.4784 5.33199 23.1183C5.97182 23.7581 6.83961 24.1176 7.74447 24.1176H21.3915C22.2964 24.1176 23.1642 23.7581 23.804 23.1183C24.4438 22.4784 24.8033 21.6107 24.8033 20.7058C24.8033 19.1977 24.2042 17.7514 23.1378 16.685C22.0714 15.6186 20.6251 15.0195 19.117 15.0195H10.019Z" fill="#111010"/>
</svg>
