<svg width="28" height="28" viewBox="0 0 28 28" fill="none" xmlns="http://www.w3.org/2000/svg">
<path fill-rule="evenodd" clip-rule="evenodd" d="M9.44964 8.34296C9.44964 7.13649 9.92891 5.97943 10.782 5.12632C11.6351 4.27322 12.7922 3.79395 13.9987 3.79395C15.2051 3.79395 16.3622 4.27322 17.2153 5.12632C18.0684 5.97943 18.5477 7.13649 18.5477 8.34296C18.5477 9.54944 18.0684 10.7065 17.2153 11.5596C16.3622 12.4127 15.2051 12.892 13.9987 12.892C12.7922 12.892 11.6351 12.4127 10.782 11.5596C9.92891 10.7065 9.44964 9.54944 9.44964 8.34296ZM9.44964 15.1665C7.94155 15.1665 6.49522 15.7656 5.42884 16.832C4.36245 17.8983 3.76337 19.3447 3.76337 20.8528C3.76337 21.7576 4.12282 22.6254 4.76265 23.2653C5.40248 23.9051 6.27027 24.2645 7.17513 24.2645H20.8222C21.727 24.2645 22.5948 23.9051 23.2347 23.2653C23.8745 22.6254 24.234 21.7576 24.234 20.8528C24.234 19.3447 23.6349 17.8983 22.5685 16.832C21.5021 15.7656 20.0558 15.1665 18.5477 15.1665H9.44964Z" fill="white"/>
</svg>
