<svg width="37" height="37" viewBox="0 0 37 37" fill="none" xmlns="http://www.w3.org/2000/svg">
<path d="M6.92981 7.96429H29.4298C29.6926 7.96416 29.9552 7.98084 30.2159 8.01421C30.1275 7.39389 29.9145 6.7979 29.5895 6.26216C29.2646 5.72641 28.8345 5.26202 28.3253 4.89698C27.816 4.53194 27.2381 4.2738 26.6264 4.13815C26.0147 4.00249 25.3818 3.99211 24.766 4.10765L6.26184 7.26679H6.24075C5.07924 7.4889 4.04634 8.14607 3.35301 9.10405C4.39757 8.36108 5.64797 7.96263 6.92981 7.96429ZM29.4298 9.65179H6.92981C5.73674 9.65309 4.5929 10.1276 3.74927 10.9712C2.90564 11.8149 2.43111 12.9587 2.42981 14.1518V27.6518C2.43111 28.8449 2.90564 29.9887 3.74927 30.8323C4.5929 31.676 5.73674 32.1505 6.92981 32.1518H29.4298C30.6229 32.1505 31.7667 31.676 32.6104 30.8323C33.454 29.9887 33.9285 28.8449 33.9298 27.6518V14.1518C33.9285 12.9587 33.454 11.8149 32.6104 10.9712C31.7667 10.1276 30.6229 9.65309 29.4298 9.65179ZM26.09 23.1518C25.645 23.1518 25.2099 23.0198 24.8399 22.7726C24.4699 22.5254 24.1815 22.174 24.0112 21.7628C23.8409 21.3517 23.7964 20.8993 23.8832 20.4628C23.97 20.0264 24.1843 19.6255 24.499 19.3108C24.8136 18.9961 25.2146 18.7818 25.651 18.695C26.0875 18.6082 26.5399 18.6528 26.951 18.8231C27.3621 18.9934 27.7135 19.2817 27.9608 19.6518C28.208 20.0218 28.34 20.4568 28.34 20.9018C28.34 21.4985 28.1029 22.0708 27.681 22.4928C27.259 22.9147 26.6867 23.1518 26.09 23.1518Z" fill="black"/>
<path d="M2.46497 18.8979V11.9019C2.46497 10.3782 3.30872 7.82373 6.23723 7.27037C8.72278 6.8042 11.1837 6.8042 11.1837 6.8042C11.1837 6.8042 12.8009 7.9292 11.465 7.9292C10.129 7.9292 10.1642 9.65186 11.465 9.65186C12.7657 9.65186 11.465 11.3042 11.465 11.3042L6.22668 17.2456L2.46497 18.8979Z" fill="black"/>
</svg>
