<svg width="32" height="32" viewBox="0 0 32 32" fill="none" xmlns="http://www.w3.org/2000/svg">
<path d="M22.5809 4.03931H9.4594C6.8351 4.03931 5.52295 5.35146 5.52295 7.97576V23.7215C5.52295 26.3458 6.8351 27.658 9.4594 27.658H22.5809C25.2052 27.658 26.5173 26.3458 26.5173 23.7215V7.97576C26.5173 5.35146 25.2052 4.03931 22.5809 4.03931ZM17.3323 22.0814H10.7715C10.2283 22.0814 9.78744 21.6405 9.78744 21.0973C9.78744 20.554 10.2283 20.1131 10.7715 20.1131H17.3323C17.8755 20.1131 18.3164 20.554 18.3164 21.0973C18.3164 21.6405 17.8755 22.0814 17.3323 22.0814ZM21.2687 16.8328H10.7715C10.2283 16.8328 9.78744 16.3919 9.78744 15.8487C9.78744 15.3054 10.2283 14.8645 10.7715 14.8645H21.2687C21.812 14.8645 22.2529 15.3054 22.2529 15.8487C22.2529 16.3919 21.812 16.8328 21.2687 16.8328ZM21.2687 11.5842H10.7715C10.2283 11.5842 9.78744 11.1433 9.78744 10.6001C9.78744 10.0568 10.2283 9.61594 10.7715 9.61594H21.2687C21.812 9.61594 22.2529 10.0568 22.2529 10.6001C22.2529 11.1433 21.812 11.5842 21.2687 11.5842Z" fill="#050403"/>
</svg>
