<svg width="33" height="32" viewBox="0 0 33 32" fill="none" xmlns="http://www.w3.org/2000/svg">
<path d="M22.8646 4.21069H9.74309C7.11879 4.21069 5.80664 5.52284 5.80664 8.14714V23.8929C5.80664 26.5172 7.11879 27.8294 9.74309 27.8294H22.8646C25.4889 27.8294 26.801 26.5172 26.801 23.8929V8.14714C26.801 5.52284 25.4889 4.21069 22.8646 4.21069ZM17.616 22.2527H11.0552C10.512 22.2527 10.0711 21.8119 10.0711 21.2686C10.0711 20.7254 10.512 20.2845 11.0552 20.2845H17.616C18.1592 20.2845 18.6001 20.7254 18.6001 21.2686C18.6001 21.8119 18.1592 22.2527 17.616 22.2527ZM21.5524 17.0042H11.0552C10.512 17.0042 10.0711 16.5633 10.0711 16.02C10.0711 15.4768 10.512 15.0359 11.0552 15.0359H21.5524C22.0957 15.0359 22.5365 15.4768 22.5365 16.02C22.5365 16.5633 22.0957 17.0042 21.5524 17.0042ZM21.5524 11.7556H11.0552C10.512 11.7556 10.0711 11.3147 10.0711 10.7714C10.0711 10.2282 10.512 9.78733 11.0552 9.78733H21.5524C22.0957 9.78733 22.5365 10.2282 22.5365 10.7714C22.5365 11.3147 22.0957 11.7556 21.5524 11.7556Z" fill="white"/>
</svg>
