<svg width="32" height="32" viewBox="0 0 32 32" fill="none" xmlns="http://www.w3.org/2000/svg">
<path d="M22.5803 4.03931H9.45879C6.83449 4.03931 5.52234 5.35146 5.52234 7.97576V23.7215C5.52234 26.3458 6.83449 27.658 9.45879 27.658H22.5803C25.2046 27.658 26.5167 26.3458 26.5167 23.7215V7.97576C26.5167 5.35146 25.2046 4.03931 22.5803 4.03931ZM17.3317 22.0814H10.7709C10.2277 22.0814 9.78683 21.6405 9.78683 21.0973C9.78683 20.554 10.2277 20.1131 10.7709 20.1131H17.3317C17.8749 20.1131 18.3158 20.554 18.3158 21.0973C18.3158 21.6405 17.8749 22.0814 17.3317 22.0814ZM21.2681 16.8328H10.7709C10.2277 16.8328 9.78683 16.3919 9.78683 15.8487C9.78683 15.3054 10.2277 14.8645 10.7709 14.8645H21.2681C21.8114 14.8645 22.2522 15.3054 22.2522 15.8487C22.2522 16.3919 21.8114 16.8328 21.2681 16.8328ZM21.2681 11.5842H10.7709C10.2277 11.5842 9.78683 11.1433 9.78683 10.6001C9.78683 10.0568 10.2277 9.61594 10.7709 9.61594H21.2681C21.8114 9.61594 22.2522 10.0568 22.2522 10.6001C22.2522 11.1433 21.8114 11.5842 21.2681 11.5842Z" fill="#050403"/>
</svg>
