<svg width="254" height="52" viewBox="0 0 254 52" fill="none" xmlns="http://www.w3.org/2000/svg">
<path d="M0.331055 4.58854C0.331055 2.35329 2.14308 0.54126 4.37833 0.54126H249.239C251.474 0.54126 253.286 2.35329 253.286 4.58854V47.085C253.286 49.3202 251.474 51.1323 249.239 51.1323H4.37833C2.14308 51.1323 0.331055 49.3202 0.331055 47.085V25.8368V4.58854Z" fill="white"/>
<path d="M4.37833 0.794215H249.239C251.334 0.794215 253.033 2.49299 253.033 4.58854V47.085C253.033 49.1805 251.334 50.8793 249.239 50.8793H4.37833C2.28278 50.8793 0.58401 49.1805 0.58401 47.085V25.8368V4.58854C0.58401 2.493 2.28279 0.794215 4.37833 0.794215Z" stroke="#444444" stroke-opacity="0.2" stroke-width="0.50591"/>
</svg>
