<svg width="253" height="51" viewBox="0 0 253 51" fill="none" xmlns="http://www.w3.org/2000/svg">
<path d="M0.287598 4.24909C0.287598 2.01726 2.09685 0.208008 4.32868 0.208008H248.814C251.046 0.208008 252.855 2.01726 252.855 4.24909V46.6804C252.855 48.9122 251.046 50.7215 248.814 50.7215H4.32867C2.09684 50.7215 0.287598 48.9122 0.287598 46.6804V25.4647V4.24909Z" fill="white"/>
<path d="M0.540165 4.24909C0.540165 2.15675 2.23634 0.460575 4.32868 0.460575H248.814C250.906 0.460575 252.602 2.15675 252.602 4.24909V46.6804C252.602 48.7727 250.906 50.4689 248.814 50.4689H4.32867C2.23633 50.4689 0.540165 48.7727 0.540165 46.6804V25.4647V4.24909Z" stroke="#444444" stroke-opacity="0.2" stroke-width="0.505135"/>
</svg>
