<svg width="416" height="51" viewBox="0 0 416 51" fill="none" xmlns="http://www.w3.org/2000/svg">
<path d="M0.331055 4.35929C0.331055 2.12404 2.14308 0.312012 4.37833 0.312012H411.13C413.365 0.312012 415.177 2.12404 415.177 4.35929V46.8557C415.177 49.091 413.365 50.903 411.13 50.903H4.37833C2.14308 50.903 0.331055 49.091 0.331055 46.8557V25.6075V4.35929Z" fill="white"/>
<path d="M4.37833 0.564967H411.13C413.225 0.564967 414.924 2.26374 414.924 4.35929V46.8557C414.924 48.9513 413.225 50.65 411.13 50.65H4.37833C2.28278 50.65 0.58401 48.9513 0.58401 46.8557V25.6075V4.35929C0.58401 2.26375 2.28279 0.564967 4.37833 0.564967Z" stroke="#444444" stroke-opacity="0.2" stroke-width="0.50591"/>
</svg>
