<svg width="147" height="52" viewBox="0 0 147 52" fill="none" xmlns="http://www.w3.org/2000/svg">
<path d="M0.463623 4.81779C0.463623 2.58254 2.27565 0.770508 4.5109 0.770508H142.381C144.616 0.770508 146.428 2.58254 146.428 4.81779V47.3142C146.428 49.5495 144.616 51.3615 142.381 51.3615H4.51091C2.27566 51.3615 0.463623 49.5495 0.463623 47.3142V26.066V4.81779Z" fill="white"/>
<path d="M4.5109 1.02346H142.381C144.477 1.02346 146.175 2.72224 146.175 4.81779V47.3142C146.175 49.4098 144.477 51.1085 142.381 51.1085H4.51091C2.41536 51.1085 0.716578 49.4098 0.716578 47.3142V26.066V4.81779C0.716578 2.72224 2.41536 1.02346 4.5109 1.02346Z" stroke="#444444" stroke-opacity="0.2" stroke-width="0.50591"/>
</svg>
