<svg width="148" height="52" viewBox="0 0 148 52" fill="none" xmlns="http://www.w3.org/2000/svg">
<path d="M0.463501 4.58854C0.463501 2.35329 2.27553 0.54126 4.51078 0.54126H143.345C145.58 0.54126 147.392 2.35329 147.392 4.58854V47.085C147.392 49.3202 145.58 51.1323 143.345 51.1323H4.51079C2.27554 51.1323 0.463501 49.3202 0.463501 47.085V25.8368V4.58854Z" fill="white"/>
<path d="M4.51078 0.794215H143.345C145.44 0.794215 147.139 2.49299 147.139 4.58854V47.085C147.139 49.1805 145.44 50.8793 143.345 50.8793H4.51079C2.41524 50.8793 0.716456 49.1805 0.716456 47.085V25.8368V4.58854C0.716456 2.493 2.41523 0.794215 4.51078 0.794215Z" stroke="#444444" stroke-opacity="0.2" stroke-width="0.50591"/>
</svg>
