<svg width="146" height="51" viewBox="0 0 146 51" fill="none" xmlns="http://www.w3.org/2000/svg">
<path d="M0.0090332 4.31696C0.0090332 2.08513 1.81829 0.275879 4.05011 0.275879H141.709C143.941 0.275879 145.75 2.08513 145.75 4.31696V46.7483C145.75 48.9801 143.941 50.7894 141.709 50.7894H4.05011C1.81828 50.7894 0.0090332 48.9801 0.0090332 46.7483V25.5326V4.31696Z" fill="white"/>
<path d="M0.261601 4.31696C0.261601 2.22462 1.95777 0.528446 4.05011 0.528446H141.709C143.801 0.528446 145.498 2.22462 145.498 4.31696V46.7483C145.498 48.8406 143.801 50.5368 141.709 50.5368H4.05011C1.95777 50.5368 0.261601 48.8406 0.261601 46.7483V25.5326V4.31696Z" stroke="#444444" stroke-opacity="0.2" stroke-width="0.505135"/>
</svg>
