<svg width="147" height="51" viewBox="0 0 147 51" fill="none" xmlns="http://www.w3.org/2000/svg">
<path d="M0.00915527 4.24909C0.00915527 2.01726 1.81841 0.208008 4.05023 0.208008H142.672C144.903 0.208008 146.713 2.01726 146.713 4.24909V46.6804C146.713 48.9122 144.903 50.7215 142.672 50.7215H4.05023C1.8184 50.7215 0.00915527 48.9122 0.00915527 46.6804V25.4647V4.24909Z" fill="white"/>
<path d="M0.261723 4.24909C0.261723 2.15675 1.9579 0.460575 4.05023 0.460575H142.672C144.764 0.460575 146.46 2.15675 146.46 4.24909V46.6804C146.46 48.7727 144.764 50.4689 142.672 50.4689H4.05023C1.95789 50.4689 0.261723 48.7727 0.261723 46.6804V25.4647V4.24909Z" stroke="#444444" stroke-opacity="0.2" stroke-width="0.505135"/>
</svg>
