<svg width="415" height="51" viewBox="0 0 415 51" fill="none" xmlns="http://www.w3.org/2000/svg">
<path d="M0.287598 4.18097C0.287598 1.94915 2.09685 0.139893 4.32868 0.139893H410.457C412.689 0.139893 414.498 1.94914 414.498 4.18097V46.6123C414.498 48.8441 412.689 50.6534 410.457 50.6534H4.32867C2.09685 50.6534 0.287598 48.8441 0.287598 46.6123V25.3966V4.18097Z" fill="white"/>
<path d="M0.540165 4.18097C0.540165 2.08864 2.23634 0.39246 4.32868 0.39246H410.457C412.549 0.39246 414.246 2.08863 414.246 4.18097V46.6123C414.246 48.7046 412.549 50.4008 410.457 50.4008H4.32867C2.23634 50.4008 0.540165 48.7046 0.540165 46.6123V25.3966V4.18097Z" stroke="#444444" stroke-opacity="0.2" stroke-width="0.505135"/>
</svg>
