<svg width="34" height="27" viewBox="0 0 34 27" fill="none" xmlns="http://www.w3.org/2000/svg">
<path fill-rule="evenodd" clip-rule="evenodd" d="M0.500488 12.8387V23.7344C0.500488 25.0826 1.59347 26.1756 2.94174 26.1756C4.29 26.1756 5.38299 25.0826 5.38299 23.7344V22.9215H28.168V23.7344C28.168 25.0826 29.261 26.1756 30.6092 26.1756C31.9575 26.1756 33.0505 25.0826 33.0505 23.7344V12.8387C33.0505 11.3834 32.4729 10.0046 31.4714 8.98945C32.1068 8.62578 32.7053 8.25639 32.8161 8.09722C33.0678 7.73565 33.1834 6.65094 32.8161 6.65094H29.7961V6.65205L28.9576 4.9756C27.4762 2.01355 24.4486 0.142578 21.1367 0.142578H12.4143C9.10242 0.142578 6.07475 2.01355 4.59333 4.97561L3.75544 6.65094H0.735676C0.368376 6.65094 0.484007 7.73565 0.735676 8.09722C0.846437 8.25635 1.44466 8.62558 2.07983 8.98915C1.0782 10.0043 0.500488 11.3833 0.500488 12.8387ZM6.44865 4.85553L4.89827 7.7617C4.38037 8.73251 5.08385 9.90512 6.18416 9.90512H16.7748H27.3655C28.4658 9.90512 29.1693 8.73251 28.6514 7.7617L27.101 4.85553C26.0877 2.95616 24.1102 1.76979 21.9574 1.76979H11.5922C9.43945 1.76979 7.46192 2.95616 6.44865 4.85553ZM5.47121 16.6918L4.62788 16.6215C3.21495 16.5038 2.12813 15.3227 2.12813 13.9049C2.12813 12.853 3.26915 12.1975 4.17783 12.7274L6.32641 13.9804C7.6678 14.7627 7.01867 16.8207 5.47121 16.6918ZM28.9231 16.6215L28.0798 16.6918C26.5323 16.8207 25.8832 14.7627 27.2246 13.9804L29.3731 12.7274C30.2818 12.1975 31.4229 12.853 31.4229 13.9049C31.4229 15.3227 30.336 16.5038 28.9231 16.6215Z" fill="#050403"/>
</svg>
