<svg width="17" height="17" viewBox="0 0 17 17" fill="none" xmlns="http://www.w3.org/2000/svg">
<path d="M7.51782 1.64458C7.81717 0.723268 9.12058 0.723269 9.41993 1.64458L10.6011 5.27993C10.735 5.69195 11.119 5.97091 11.5522 5.97091H15.3746C16.3433 5.97091 16.7461 7.21053 15.9624 7.77993L12.87 10.0267C12.5195 10.2813 12.3728 10.7327 12.5067 11.1447L13.6879 14.7801C13.9873 15.7014 12.9328 16.4675 12.1491 15.8981L9.05666 13.6513C8.70617 13.3967 8.23158 13.3967 7.88109 13.6513L4.78868 15.8981C4.00496 16.4675 2.95048 15.7014 3.24984 14.7801L4.43103 11.1447C4.56491 10.7327 4.41825 10.2813 4.06776 10.0267L0.975346 7.77993C0.191632 7.21053 0.594409 5.97091 1.56313 5.97091H5.38557C5.81879 5.97091 6.20275 5.69195 6.33662 5.27993L7.51782 1.64458Z" fill="#FC9D4A"/>
</svg>
