<svg width="17" height="16" viewBox="0 0 17 16" fill="none" xmlns="http://www.w3.org/2000/svg">
<path d="M7.79663 1.00444C8.09598 0.0831313 9.39939 0.083132 9.69874 1.00444L10.8799 4.63979C11.0138 5.05182 11.3978 5.33078 11.831 5.33078H15.6534C16.6222 5.33078 17.0249 6.57039 16.2412 7.13979L13.1488 9.38656C12.7983 9.64121 12.6517 10.0926 12.7855 10.5046L13.9667 14.1399C14.2661 15.0613 13.2116 15.8274 12.4279 15.258L9.33547 13.0112C8.98498 12.7566 8.51039 12.7566 8.1599 13.0112L5.06748 15.258C4.28377 15.8274 3.22929 15.0613 3.52864 14.1399L4.70984 10.5046C4.84372 10.0926 4.69706 9.64121 4.34657 9.38656L1.25415 7.13979C0.470441 6.57039 0.873217 5.33078 1.84194 5.33078H5.66437C6.0976 5.33078 6.48156 5.05182 6.61543 4.63979L7.79663 1.00444Z" fill="#FC9D4A"/>
</svg>
