<svg width="16" height="17" viewBox="0 0 16 17" fill="none" xmlns="http://www.w3.org/2000/svg">
<path d="M6.94922 1.64458C7.24857 0.723268 8.55198 0.723269 8.85133 1.64458L10.0325 5.27993C10.1664 5.69195 10.5504 5.97091 10.9836 5.97091H14.806C15.7747 5.97091 16.1775 7.21053 15.3938 7.77993L12.3014 10.0267C11.9509 10.2813 11.8042 10.7327 11.9381 11.1447L13.1193 14.7801C13.4187 15.7014 12.3642 16.4675 11.5805 15.8981L8.48806 13.6513C8.13757 13.3967 7.66297 13.3967 7.31249 13.6513L4.22007 15.8981C3.43636 16.4675 2.38188 15.7014 2.68123 14.7801L3.86243 11.1447C3.9963 10.7327 3.84964 10.2813 3.49916 10.0267L0.406742 7.77993C-0.376971 7.21053 0.025805 5.97091 0.994528 5.97091H4.81696C5.25019 5.97091 5.63414 5.69195 5.76802 5.27993L6.94922 1.64458Z" fill="#FC9D4A"/>
</svg>
