<svg width="16" height="17" viewBox="0 0 16 17" fill="none" xmlns="http://www.w3.org/2000/svg">
<path d="M6.96118 1.64433C7.26053 0.723024 8.56394 0.723025 8.86329 1.64434L10.0445 5.27969C10.1784 5.69171 10.5623 5.97067 10.9955 5.97067H14.818C15.7867 5.97067 16.1895 7.21028 15.4058 7.77969L12.3133 10.0265C11.9629 10.2811 11.8162 10.7325 11.9501 11.1445L13.1313 14.7798C13.4306 15.7012 12.3761 16.4673 11.5924 15.8979L8.50002 13.6511C8.14953 13.3965 7.67494 13.3965 7.32445 13.6511L4.23203 15.8979C3.44832 16.4673 2.39384 15.7012 2.69319 14.7798L3.87439 11.1445C4.00827 10.7325 3.86161 10.2811 3.51112 10.0265L0.418705 7.77969C-0.365008 7.21028 0.0377679 5.97067 1.00649 5.97067H4.82893C5.26215 5.97067 5.64611 5.69171 5.77998 5.27969L6.96118 1.64433Z" fill="#FC9D4A"/>
</svg>
