<svg width="17" height="17" viewBox="0 0 17 17" fill="none" xmlns="http://www.w3.org/2000/svg">
<path d="M7.35327 1.64458C7.65262 0.723268 8.95603 0.723269 9.25538 1.64458L10.4366 5.27993C10.5705 5.69195 10.9544 5.97091 11.3876 5.97091H15.2101C16.1788 5.97091 16.5816 7.21053 15.7979 7.77993L12.7054 10.0267C12.355 10.2813 12.2083 10.7327 12.3422 11.1447L13.5234 14.7801C13.8227 15.7014 12.7682 16.4675 11.9845 15.8981L8.89211 13.6513C8.54162 13.3967 8.06703 13.3967 7.71654 13.6513L4.62412 15.8981C3.84041 16.4675 2.78593 15.7014 3.08528 14.7801L4.26648 11.1447C4.40036 10.7327 4.2537 10.2813 3.90321 10.0267L0.810795 7.77993C0.0270815 7.21053 0.429858 5.97091 1.39858 5.97091H5.22102C5.65424 5.97091 6.0382 5.69195 6.17207 5.27993L7.35327 1.64458Z" fill="#D9D9D9"/>
</svg>
