<svg width="17" height="17" viewBox="0 0 17 17" fill="none" xmlns="http://www.w3.org/2000/svg">
<path d="M7.73364 1.64458C8.03299 0.723268 9.3364 0.723269 9.63575 1.64458L10.8169 5.27993C10.9508 5.69195 11.3348 5.97091 11.768 5.97091H15.5904C16.5592 5.97091 16.9619 7.21053 16.1782 7.77993L13.0858 10.0267C12.7353 10.2813 12.5887 10.7327 12.7225 11.1447L13.9037 14.7801C14.2031 15.7014 13.1486 16.4675 12.3649 15.8981L9.27248 13.6513C8.92199 13.3967 8.4474 13.3967 8.09691 13.6513L5.0045 15.8981C4.22078 16.4675 3.1663 15.7014 3.46566 14.7801L4.64685 11.1447C4.78073 10.7327 4.63407 10.2813 4.28358 10.0267L1.19117 7.77993C0.407453 7.21053 0.810229 5.97091 1.77895 5.97091H5.60139C6.03461 5.97091 6.41857 5.69195 6.55244 5.27993L7.73364 1.64458Z" fill="#FC9D4A"/>
</svg>
