<svg width="17" height="17" viewBox="0 0 17 17" fill="none" xmlns="http://www.w3.org/2000/svg">
<path d="M7.34131 1.64458C7.64066 0.723268 8.94407 0.723269 9.24342 1.64458L10.4246 5.27993C10.5585 5.69195 10.9424 5.97091 11.3757 5.97091H15.1981C16.1668 5.97091 16.5696 7.21053 15.7859 7.77993L12.6935 10.0267C12.343 10.2813 12.1963 10.7327 12.3302 11.1447L13.5114 14.7801C13.8108 15.7014 12.7563 16.4675 11.9726 15.8981L8.88015 13.6513C8.52966 13.3967 8.05506 13.3967 7.70458 13.6513L4.61216 15.8981C3.82845 16.4675 2.77397 15.7014 3.07332 14.7801L4.25452 11.1447C4.38839 10.7327 4.24173 10.2813 3.89125 10.0267L0.798832 7.77993C0.0151186 7.21053 0.417895 5.97091 1.38662 5.97091H5.20905C5.64228 5.97091 6.02623 5.69195 6.16011 5.27993L7.34131 1.64458Z" fill="#FC9D4A"/>
</svg>
