<svg width="25" height="25" viewBox="0 0 25 25" fill="none" xmlns="http://www.w3.org/2000/svg">
<path d="M19.5559 4.18673H17.5323V3.17491C17.5323 2.90655 17.4257 2.64919 17.2359 2.45944C17.0462 2.26969 16.7888 2.16309 16.5205 2.16309C16.2521 2.16309 15.9947 2.26969 15.805 2.45944C15.6152 2.64919 15.5086 2.90655 15.5086 3.17491V4.18673H9.43772V3.17491C9.43772 2.90655 9.33112 2.64919 9.14136 2.45944C8.95161 2.26969 8.69425 2.16309 8.4259 2.16309C8.15755 2.16309 7.90019 2.26969 7.71044 2.45944C7.52068 2.64919 7.41408 2.90655 7.41408 3.17491V4.18673H5.39044C4.58539 4.18673 3.81331 4.50653 3.24405 5.07579C2.67479 5.64505 2.35498 6.41713 2.35498 7.22219V19.364C2.35498 20.1691 2.67479 20.9412 3.24405 21.5104C3.81331 22.0797 4.58539 22.3995 5.39044 22.3995H19.5559C20.361 22.3995 21.1331 22.0797 21.7023 21.5104C22.2716 20.9412 22.5914 20.1691 22.5914 19.364V7.22219C22.5914 6.41713 22.2716 5.64505 21.7023 5.07579C21.1331 4.50653 20.361 4.18673 19.5559 4.18673ZM20.5677 19.364C20.5677 19.6324 20.4611 19.8897 20.2714 20.0795C20.0816 20.2692 19.8243 20.3758 19.5559 20.3758H5.39044C5.12209 20.3758 4.86473 20.2692 4.67498 20.0795C4.48522 19.8897 4.37862 19.6324 4.37862 19.364V12.2813H20.5677V19.364ZM20.5677 10.2576H4.37862V7.22219C4.37862 6.95383 4.48522 6.69647 4.67498 6.50672C4.86473 6.31697 5.12209 6.21037 5.39044 6.21037H7.41408V7.22219C7.41408 7.49054 7.52068 7.7479 7.71044 7.93765C7.90019 8.1274 8.15755 8.234 8.4259 8.234C8.69425 8.234 8.95161 8.1274 9.14136 7.93765C9.33112 7.7479 9.43772 7.49054 9.43772 7.22219V6.21037H15.5086V7.22219C15.5086 7.49054 15.6152 7.7479 15.805 7.93765C15.9947 8.1274 16.2521 8.234 16.5205 8.234C16.7888 8.234 17.0462 8.1274 17.2359 7.93765C17.4257 7.7479 17.5323 7.49054 17.5323 7.22219V6.21037H19.5559C19.8243 6.21037 20.0816 6.31697 20.2714 6.50672C20.4611 6.69647 20.5677 6.95383 20.5677 7.22219V10.2576Z" fill="#0D0D0D"/>
</svg>
