<svg width="25" height="26" viewBox="0 0 25 26" fill="none" xmlns="http://www.w3.org/2000/svg">
<path d="M19.4826 4.90018H17.462V3.88991C17.462 3.62197 17.3556 3.365 17.1661 3.17554C16.9767 2.98608 16.7197 2.87964 16.4518 2.87964C16.1838 2.87964 15.9268 2.98608 15.7374 3.17554C15.5479 3.365 15.4415 3.62197 15.4415 3.88991V4.90018H9.37987V3.88991C9.37987 3.62197 9.27343 3.365 9.08397 3.17554C8.89451 2.98608 8.63754 2.87964 8.3696 2.87964C8.10166 2.87964 7.84469 2.98608 7.65523 3.17554C7.46577 3.365 7.35933 3.62197 7.35933 3.88991V4.90018H5.33879C4.53497 4.90018 3.76407 5.21949 3.19569 5.78788C2.6273 6.35627 2.30798 7.12717 2.30798 7.93099V20.0542C2.30798 20.858 2.6273 21.6289 3.19569 22.1973C3.76407 22.7657 4.53497 23.085 5.33879 23.085H19.4826C20.2864 23.085 21.0573 22.7657 21.6257 22.1973C22.1941 21.6289 22.5134 20.858 22.5134 20.0542V7.93099C22.5134 7.12717 22.1941 6.35627 21.6257 5.78788C21.0573 5.21949 20.2864 4.90018 19.4826 4.90018ZM20.4928 20.0542C20.4928 20.3222 20.3864 20.5791 20.1969 20.7686C20.0075 20.958 19.7505 21.0645 19.4826 21.0645H5.33879C5.07085 21.0645 4.81389 20.958 4.62442 20.7686C4.43496 20.5791 4.32852 20.3222 4.32852 20.0542V12.9823H20.4928V20.0542ZM20.4928 10.9618H4.32852V7.93099C4.32852 7.66305 4.43496 7.40608 4.62442 7.21662C4.81389 7.02716 5.07085 6.92072 5.33879 6.92072H7.35933V7.93099C7.35933 8.19893 7.46577 8.45589 7.65523 8.64535C7.84469 8.83482 8.10166 8.94126 8.3696 8.94126C8.63754 8.94126 8.89451 8.83482 9.08397 8.64535C9.27343 8.45589 9.37987 8.19893 9.37987 7.93099V6.92072H15.4415V7.93099C15.4415 8.19893 15.5479 8.45589 15.7374 8.64535C15.9268 8.83482 16.1838 8.94126 16.4518 8.94126C16.7197 8.94126 16.9767 8.83482 17.1661 8.64535C17.3556 8.45589 17.462 8.19893 17.462 7.93099V6.92072H19.4826C19.7505 6.92072 20.0075 7.02716 20.1969 7.21662C20.3864 7.40608 20.4928 7.66305 20.4928 7.93099V10.9618Z" fill="#0D0D0D"/>
</svg>
