<svg width="28" height="28" viewBox="0 0 28 28" fill="none" xmlns="http://www.w3.org/2000/svg">
<path d="M2.37177 22.3038C2.37177 24.2371 3.8502 25.7156 5.78353 25.7156H21.7051C23.6384 25.7156 25.1169 24.2371 25.1169 22.3038V13.2058H2.37177V22.3038ZM21.7051 5.24497H19.4306V4.10771C19.4306 3.42536 18.9757 2.97046 18.2933 2.97046C17.611 2.97046 17.1561 3.42536 17.1561 4.10771V5.24497H10.3325V4.10771C10.3325 3.42536 9.87765 2.97046 9.19529 2.97046C8.51294 2.97046 8.05804 3.42536 8.05804 4.10771V5.24497H5.78353C3.8502 5.24497 2.37177 6.7234 2.37177 8.65673V10.9312H25.1169V8.65673C25.1169 6.7234 23.6384 5.24497 21.7051 5.24497Z" fill="#111010"/>
</svg>
