<svg width="28" height="28" viewBox="0 0 28 28" fill="none" xmlns="http://www.w3.org/2000/svg">
<path d="M2.62665 22.3038C2.62665 24.2371 4.10508 25.7156 6.03841 25.7156H21.96C23.8933 25.7156 25.3717 24.2371 25.3717 22.3038V13.2058H2.62665V22.3038ZM21.96 5.24497H19.6855V4.10771C19.6855 3.42536 19.2306 2.97046 18.5482 2.97046C17.8659 2.97046 17.411 3.42536 17.411 4.10771V5.24497H10.5874V4.10771C10.5874 3.42536 10.1325 2.97046 9.45018 2.97046C8.76782 2.97046 8.31292 3.42536 8.31292 4.10771V5.24497H6.03841C4.10508 5.24497 2.62665 6.7234 2.62665 8.65673V10.9312H25.3717V8.65673C25.3717 6.7234 23.8933 5.24497 21.96 5.24497Z" fill="#111010"/>
</svg>
