<svg width="38" height="37" viewBox="0 0 38 37" fill="none" xmlns="http://www.w3.org/2000/svg">
<path d="M18.7485 2.22265C17.734 1.27352 16.3967 0.745367 15.0074 0.745117H5.67393C4.40281 0.745117 3.18376 1.25006 2.28495 2.14888C1.38614 3.04769 0.881194 4.26674 0.881194 5.53785V14.7906C0.881167 15.51 1.02289 16.2225 1.29826 16.8872C1.57363 17.5519 1.97725 18.1558 2.48608 18.6645L18.6759 34.8543C19.7673 35.9456 21.2475 36.5586 22.7908 36.5586C24.3342 36.5586 25.8143 35.9456 26.9057 34.8543L35.5683 26.1918C36.1203 25.6399 36.5557 24.9826 36.8485 24.259C37.1413 23.5354 37.2855 22.7603 37.2726 21.9798C37.2597 21.1993 37.09 20.4294 36.7734 19.7158C36.4568 19.0023 35.9999 18.3597 35.4299 17.8264L18.7485 2.22265ZM9.78198 13.0693C8.87405 13.0693 8.0033 12.7086 7.36129 12.0666C6.71928 11.4246 6.3586 10.5538 6.3586 9.64591C6.3586 8.73797 6.71928 7.86722 7.36129 7.22521C8.0033 6.5832 8.87405 6.22253 9.78198 6.22253C10.6899 6.22253 11.5607 6.5832 12.2027 7.22521C12.8447 7.86722 13.2054 8.73797 13.2054 9.64591C13.2054 10.5538 12.8447 11.4246 12.2027 12.0666C11.5607 12.7086 10.6899 13.0693 9.78198 13.0693Z" fill="#050403"/>
</svg>
