<svg width="36" height="36" viewBox="0 0 36 36" fill="none" xmlns="http://www.w3.org/2000/svg">
<path d="M0.489258 30.5746C0.489258 33.5712 2.78083 35.8628 5.77749 35.8628H30.4559C33.4526 35.8628 35.7442 33.5712 35.7442 30.5746V16.4726H0.489258V30.5746ZM30.4559 4.1334H26.9304V2.37066C26.9304 1.31301 26.2253 0.60791 25.1677 0.60791C24.11 0.60791 23.4049 1.31301 23.4049 2.37066V4.1334H12.8285V2.37066C12.8285 1.31301 12.1234 0.60791 11.0657 0.60791C10.0081 0.60791 9.30298 1.31301 9.30298 2.37066V4.1334H5.77749C2.78083 4.1334 0.489258 6.42497 0.489258 9.42164V12.9471H35.7442V9.42164C35.7442 6.42497 33.4526 4.1334 30.4559 4.1334Z" fill="#050403"/>
</svg>
