<svg width="17" height="23" viewBox="0 0 17 23" fill="none" xmlns="http://www.w3.org/2000/svg">
<path d="M8.42549 2.9692C10.6515 2.9692 12.4728 4.79047 12.4728 7.01648C12.4728 9.1413 10.3479 12.5815 8.42549 15.0099C6.50303 12.4803 4.37821 9.1413 4.37821 7.01648C4.37821 4.79047 6.19949 2.9692 8.42549 2.9692ZM8.42549 0.945557C5.08649 0.945557 2.35457 3.67747 2.35457 7.01648C2.35457 11.5697 8.42549 18.1465 8.42549 18.1465C8.42549 18.1465 14.4964 11.4685 14.4964 7.01648C14.4964 3.67747 11.7645 0.945557 8.42549 0.945557ZM8.42549 4.99284C7.31249 4.99284 6.40185 5.90347 6.40185 7.01648C6.40185 8.12948 7.31249 9.04012 8.42549 9.04012C9.53849 9.04012 10.4491 8.12948 10.4491 7.01648C10.4491 5.90347 9.53849 4.99284 8.42549 4.99284ZM16.5201 18.1465C16.5201 20.3725 12.8775 22.1938 8.42549 22.1938C3.97348 22.1938 0.330933 20.3725 0.330933 18.1465C0.330933 16.8311 1.54512 15.7181 3.46757 14.9087L4.07467 15.8193C3.06285 16.3252 2.35457 16.9323 2.35457 17.6406C2.35457 19.0571 5.08649 20.1701 8.42549 20.1701C11.7645 20.1701 14.4964 19.0571 14.4964 17.6406C14.4964 16.9323 13.7881 16.3252 12.6751 15.8193L13.2822 14.9087C15.3059 15.7181 16.5201 16.8311 16.5201 18.1465Z" fill="#0D0D0D"/>
</svg>
