<svg width="17" height="23" viewBox="0 0 17 23" fill="none" xmlns="http://www.w3.org/2000/svg">
<path d="M8.36975 2.84207C10.5923 2.84207 12.4108 4.66056 12.4108 6.88315C12.4108 9.00471 10.2893 12.4396 8.36975 14.8643C6.45024 12.3386 4.32868 9.00471 4.32868 6.88315C4.32868 4.66056 6.14716 2.84207 8.36975 2.84207ZM8.36975 0.821533C5.03586 0.821533 2.30814 3.54926 2.30814 6.88315C2.30814 11.4294 8.36975 17.9961 8.36975 17.9961C8.36975 17.9961 14.4314 11.3283 14.4314 6.88315C14.4314 3.54926 11.7036 0.821533 8.36975 0.821533ZM8.36975 4.86261C7.25846 4.86261 6.34921 5.77185 6.34921 6.88315C6.34921 7.99445 7.25846 8.90369 8.36975 8.90369C9.48105 8.90369 10.3903 7.99445 10.3903 6.88315C10.3903 5.77185 9.48105 4.86261 8.36975 4.86261ZM16.4519 17.9961C16.4519 20.2187 12.8149 22.0372 8.36975 22.0372C3.92457 22.0372 0.287598 20.2187 0.287598 17.9961C0.287598 16.6828 1.49992 15.5715 3.41943 14.7633L4.02559 15.6725C3.01532 16.1776 2.30814 16.7838 2.30814 17.491C2.30814 18.9054 5.03586 20.0167 8.36975 20.0167C11.7036 20.0167 14.4314 18.9054 14.4314 17.491C14.4314 16.7838 13.7242 16.1776 12.6129 15.6725L13.219 14.7633C15.2396 15.5715 16.4519 16.6828 16.4519 17.9961Z" fill="#0D0D0D"/>
</svg>
